<svg id="Layer_5" data-name="Layer 5" xmlns="http://www.w3.org/2000/svg" viewBox="0 0 50.79 28.94"><defs><style>.cls-1{fill:#0077b0;}.cls-2{fill:#fff;}</style></defs><title>iconoNuevoCamion</title><rect class="cls-1" width="50.79" height="28.94" rx="6" ry="6"/><rect class="cls-2" x="11.59" y="9.72" width="2.94" height="10.03" rx="1" ry="1"/><rect class="cls-2" x="8.04" y="13.27" width="10.04" height="2.94" rx="1" ry="1"/><path class="cls-2" d="M41.3,18.14H40.55V13.92a2.48,2.48,0,0,0-.42-1.39L38.24,9.74a2.48,2.48,0,0,0-2.06-1.09H33.24a0.62,0.62,0,0,0-.62.62h0v8.87H27.83a2.55,2.55,0,0,1,.86,1.57h5.05a2.55,2.55,0,0,1,5,0H41.3a0.31,0.31,0,0,0,.31-0.31h0V18.46a0.31,0.31,0,0,0-.31-0.31h0Zm-3.09-5.05H34.34A0.31,0.31,0,0,1,34,12.78h0V10.64a0.31,0.31,0,0,1,.31-0.31h2.39a0.32,0.32,0,0,1,.25.13l1.47,2.19a0.31,0.31,0,0,1-.15.41Z"/><circle class="cls-2" cx="36.27" cy="20.07" r="1.93"/><path class="cls-2" d="M20.17,18.14a0.31,0.31,0,0,0-.31.31h0V19.4a0.31,0.31,0,0,0,.31.31h3.47a2.56,2.56,0,0,1,.86-1.57H20.17Z"/><circle class="cls-2" cx="26.15" cy="20.07" r="1.93"/><path class="cls-2" d="M30.8,6.66H21.56a0.93,0.93,0,0,0-.94.93s0,0,0,0v5.83h0V16.9a0.29,0.29,0,0,0,0,.17,0.3,0.3,0,0,0,.2.13h10.6a0.31,0.31,0,0,0,.31-0.28V7.64a0.93,0.93,0,0,0-.88-1h0Z"/></svg>