<svg id="Layer_2" data-name="Layer 2" xmlns="http://www.w3.org/2000/svg" xmlns:xlink="http://www.w3.org/1999/xlink" viewBox="0 0 13.13 15.65"><defs><style>.cls-1{fill:none;}.cls-2{clip-path:url(#clip-path);}.cls-3{fill:#fff;}</style><clipPath id="clip-path" transform="translate(-1.09 -0.08)"><rect class="cls-1" x="1.09" y="0.08" width="13.1" height="15.92"/></clipPath></defs><title>iconoUsuario</title><g class="cls-2"><path class="cls-3" d="M14.22,12.44l-0.05.06a8.44,8.44,0,0,1-6.51,3.23A8.45,8.45,0,0,1,1.14,12.5l-0.05-.06V12.36a6.72,6.72,0,0,1,3.22-5l0.12-.07,0.1,0.1a4.29,4.29,0,0,0,6.23,0l0.1-.1L11,7.41a6.72,6.72,0,0,1,3.22,5v0.08ZM7.65,7.9A3.91,3.91,0,1,0,3.74,4,3.91,3.91,0,0,0,7.65,7.9h0Zm0,0" transform="translate(-1.09 -0.08)"/></g></svg>