<svg id="Layer_3" data-name="Layer 3" xmlns="http://www.w3.org/2000/svg" viewBox="0 0 18.39 12.93"><defs><style>.cls-1{fill:#fff;}</style></defs><title>iconoCamion</title><path class="cls-1" d="M18.13,11.2H17.49V7.63a2.09,2.09,0,0,0-.36-1.17l-1.6-2.37a2.1,2.1,0,0,0-1.74-.93H11.32a0.53,0.53,0,0,0-.52.53V11.2H6.73a2.16,2.16,0,0,1,.73,1.32h4.28a2.15,2.15,0,0,1,4.26,0h2.13a0.26,0.26,0,0,0,.26-0.26v-0.8A0.26,0.26,0,0,0,18.13,11.2ZM15.52,6.93H12.25A0.26,0.26,0,0,1,12,6.67V4.85a0.26,0.26,0,0,1,.26-0.26h2a0.27,0.27,0,0,1,.22.11l1.28,1.82A0.26,0.26,0,0,1,15.52,6.93Z" transform="translate(0 -1.54)"/><circle class="cls-1" cx="13.87" cy="11.29" r="1.63"/><path class="cls-1" d="M0.26,11.2a0.26,0.26,0,0,0-.26.26v0.8a0.26,0.26,0,0,0,.26.26H3.2a2.16,2.16,0,0,1,.72-1.32H0.26Z" transform="translate(0 -1.54)"/><circle class="cls-1" cx="5.33" cy="11.29" r="1.63"/><path class="cls-1" d="M9.25,1.54H1.43a0.79,0.79,0,0,0-.79.79V7.25h0v2.9a0.26,0.26,0,0,0,.22.26H9.78A0.26,0.26,0,0,0,10,10.17V2.32A0.79,0.79,0,0,0,9.25,1.54Z" transform="translate(0 -1.54)"/></svg>