<svg id="Layer_1" data-name="Layer 1" xmlns="http://www.w3.org/2000/svg" viewBox="0 0 15.15 15.15"><defs><style>.cls-1{fill:#fff;}</style></defs><title>iconoChofer</title><path class="cls-1" d="M8.18,0.35a7.58,7.58,0,1,0,7.58,7.58A7.58,7.58,0,0,0,8.18.35ZM8.08,2.24h0.2c2.86,0.11,5.38,2.54,4.91,3.63a0.62,0.62,0,0,1-.89,0A9.06,9.06,0,0,0,8.18,5a9,9,0,0,0-4.12.91,0.62,0.62,0,0,1-.89,0C2.69,4.78,5.22,2.35,8.08,2.24ZM6.91,13.31a0.61,0.61,0,0,1-.5,0A6,6,0,0,1,3,10a0.91,0.91,0,0,1-.13-0.82,3.71,3.71,0,0,1,2.91,1,5.66,5.66,0,0,1,1.15,2.07A1.58,1.58,0,0,1,6.91,13.31Zm1.26-3.8A1.58,1.58,0,1,1,9.76,7.93,1.58,1.58,0,0,1,8.18,9.51ZM13.38,10a6,6,0,0,1-3.43,3.26,0.61,0.61,0,0,1-.5,0,1.61,1.61,0,0,1,0-1,5.66,5.66,0,0,1,1.15-2.07,3.71,3.71,0,0,1,2.91-1A0.9,0.9,0,0,1,13.38,10Z" transform="translate(-0.6 -0.35)"/></svg>