<svg id="Layer_1" data-name="Layer 1" xmlns="http://www.w3.org/2000/svg" viewBox="0 0 12.3 15.74"><defs><style>.cls-1{fill:#fff;}</style></defs><title>iconoEmpresa</title><path class="cls-1" d="M12.57,0.13H3.06a1.4,1.4,0,0,0-1.4,1.4V14.47a1.4,1.4,0,0,0,1.4,1.4H6.37v-3A0.86,0.86,0,0,1,7.23,12H8.52a0.86,0.86,0,0,1,.86.86v3h3.2a1.4,1.4,0,0,0,1.4-1.4V1.53A1.4,1.4,0,0,0,12.57.13ZM6.89,8.86a0.67,0.67,0,0,1-.67.67h-1a0.67,0.67,0,0,1-.67-0.67v-1a0.67,0.67,0,0,1,.67-0.67h1a0.67,0.67,0,0,1,.67.67v1Zm0-3.66a0.66,0.66,0,0,1-.66.66h-1A0.66,0.66,0,0,1,4.54,5.2v-1A0.66,0.66,0,0,1,5.2,3.5h1a0.66,0.66,0,0,1,.66.66v1Zm4.28,3.66a0.67,0.67,0,0,1-.67.67h-1a0.67,0.67,0,0,1-.67-0.67v-1a0.67,0.67,0,0,1,.67-0.67h1a0.67,0.67,0,0,1,.67.67v1Zm0-3.6a0.59,0.59,0,0,1-.59.59H9.41a0.59,0.59,0,0,1-.59-0.59V4.1A0.59,0.59,0,0,1,9.41,3.5h1.17a0.59,0.59,0,0,1,.59.59V5.26Z" transform="translate(-1.67 -0.13)"/></svg>