<svg id="Capa_1" data-name="Capa 1" xmlns="http://www.w3.org/2000/svg" viewBox="0 0 10.44 11.19"><defs><style>.cls-1{fill:#fff;}</style></defs><title>iconoClientesSmall</title><g id="_Group_" data-name="&lt;Group&gt;"><path class="cls-1" d="M5.58,13.09A5,5,0,0,0,9.31,11.3h0V11.16a4.74,4.74,0,0,0-.82-1.86,3,3,0,0,0-1-.9L7.37,8.32V8.4l-0.22.22a2.48,2.48,0,0,1-1.57.52A2.6,2.6,0,0,1,3.79,8.4L3.72,8.32,3.64,8.4a3.84,3.84,0,0,0-1.86,2.76v0.07h0A5.07,5.07,0,0,0,5.58,13.09Z" transform="translate(-1.78 -1.91)"/><path class="cls-1" d="M7.82,6.46a1.27,1.27,0,0,0-.07-0.52A2.24,2.24,0,0,0,5.58,4.22,2.2,2.2,0,0,0,3.34,6.46,2.29,2.29,0,0,0,5.58,8.69a2.51,2.51,0,0,0,1.27-.37A2.33,2.33,0,0,0,7.82,6.46Z" transform="translate(-1.78 -1.91)"/><path class="cls-1" d="M10.43,4.74c-0.82-.22-1-0.37-1-0.75s0.6-.45.9-0.45a1.77,1.77,0,0,1,.9.22,0.24,0.24,0,0,0,.3-0.07L12,3a0.24,0.24,0,0,0-.07-0.3,2,2,0,0,0-1.12-.37V2.13a0.32,0.32,0,0,0-.22-0.22H9.83a0.24,0.24,0,0,0-.22.22V2.58A1.5,1.5,0,0,0,8.34,4.07c0,1.27,1.12,1.57,1.79,1.79s1,0.37,1,.6-0.52.37-.82,0.37a1.35,1.35,0,0,1-1-.45H9a0.15,0.15,0,0,0-.15.07L8.34,7c-0.15.07-.15,0.15-0.07,0.22a2.12,2.12,0,0,0,1.27.67V8.32a0.24,0.24,0,0,0,.22.22h0.75a0.24,0.24,0,0,0,.22-0.22V7.95a1.6,1.6,0,0,0,1.49-1.49c0-1.19-1-1.49-1.79-1.72h0Z" transform="translate(-1.78 -1.91)"/></g></svg>