<svg id="Layer_1" data-name="Layer 1" xmlns="http://www.w3.org/2000/svg" viewBox="0 0 16.82 10.91"><defs><style>.cls-1{fill:none;}.cls-2{fill:#fff;}</style></defs><title>iconoPececito</title><circle class="cls-1" cx="14.89" cy="5.78" r="0.64"/><path class="cls-2" d="M13.58,2.72a5.65,5.65,0,0,0,.11,6.35s3.13-1.18,3.13-3.28C16.82,5.78,16.77,4.34,13.58,2.72Zm1.31,3.75a0.64,0.64,0,1,1,.63-0.64A0.64,0.64,0,0,1,14.89,6.46Z" transform="translate(0 -0.04)"/><path class="cls-2" d="M13,9.33A5.91,5.91,0,0,1,11.61,5.5a5,5,0,0,1,1.38-3S11.8-.94,8.56.33c0,0-.42.37-0.26,2a7.72,7.72,0,0,0,.11,7.07S8,10.88,8.93,10.95a3.17,3.17,0,0,0,2.69-1.36A8.54,8.54,0,0,0,13,9.33Z" transform="translate(0 -0.04)"/><path class="cls-2" d="M7.29,9.07a6.29,6.29,0,0,1,0-6.35S4.36,1.18,3.92,2.58a1.49,1.49,0,0,0,.46,1.49,2.19,2.19,0,0,1-.94.48,3.44,3.44,0,0,0,0,2.52L4.29,7.38a2,2,0,0,0-.2,1.93S4.71,10.34,7.29,9.07Z" transform="translate(0 -0.04)"/><path class="cls-2" d="M2.54,7.1a4.14,4.14,0,0,1,0-2.56A2.86,2.86,0,0,0,.9,3.9C0,3.9,0,5,0,6S0.39,7.75,1.14,7.73A2.33,2.33,0,0,0,2.54,7.1Z" transform="translate(0 -0.04)"/></svg>