<?xml version="1.0" encoding="utf-8"?>
<!-- Generator: Adobe Illustrator 18.0.0, SVG Export Plug-In . SVG Version: 6.00 Build 0)  -->
<!DOCTYPE svg PUBLIC "-//W3C//DTD SVG 1.1//EN" "http://www.w3.org/Graphics/SVG/1.1/DTD/svg11.dtd">
<svg version="1.1" id="Capa_1" xmlns="http://www.w3.org/2000/svg" xmlns:xlink="http://www.w3.org/1999/xlink" x="0px" y="0px"
	 viewBox="0 0 51 29" enable-background="new 0 0 51 29" xml:space="preserve">
<g>
	<g>
		<path fill="#4376AC" d="M50.9,23.1c0,3.3-2.7,6-6,6H6c-3.3,0-6-2.7-6-6V6c0-3.3,2.7-6,6-6h39c3.3,0,6,2.7,6,6V23.1z"/>
	</g>
	<g>
		<g>
			<path fill="#FFFFFF" d="M14.7,18.8c0,0.6-0.5,1-1,1h-0.9c-0.6,0-1-0.5-1-1v-8c0-0.6,0.5-1,1-1h0.9c0.6,0,1,0.5,1,1V18.8z"/>
		</g>
		<g>
			<path fill="#FFFFFF" d="M9.2,16.2c-0.6,0-1-0.5-1-1v-0.9c0-0.6,0.5-1,1-1h8c0.6,0,1,0.5,1,1v0.9c0,0.6-0.5,1-1,1H9.2z"/>
		</g>
	</g>
	<g>
		<g>
			<circle fill="none" cx="36.2" cy="10.3" r="0.6"/>
			<path fill="#FFFFFF" d="M34.9,7.2c0,0-2.2,3.2,0.1,6.4c0,0,3.1-1.2,3.1-3.3C38.1,10.3,38.1,8.8,34.9,7.2z M36.2,11
				c-0.4,0-0.6-0.3-0.6-0.6c0-0.4,0.3-0.6,0.6-0.6c0.4,0,0.6,0.3,0.6,0.6C36.8,10.7,36.6,11,36.2,11z"/>
			<path fill="#FFFFFF" d="M34.3,13.9c0,0-1.5-1.7-1.4-3.8c0,0,0.2-2.1,1.4-3c0,0-1.2-3.4-4.4-2.1c0,0-0.4,0.4-0.3,2
				c0,0-1.9,3.6,0.1,7.1c0,0-0.4,1.5,0.5,1.5c0.9,0.1,2.1-0.4,2.7-1.4C32.9,14.1,34.1,14,34.3,13.9z"/>
			<path fill="#FFFFFF" d="M28.6,13.6c0,0-2-3,0-6.4c0,0-2.9-1.5-3.4-0.1c0,0-0.3,0.9,0.5,1.5c0,0-0.7,0.5-0.9,0.5
				c0,0-0.5,1.1,0,2.5c0,0,0.5,0.2,0.9,0.3c0,0-0.7,1.1-0.2,1.9C25.4,13.8,26,14.9,28.6,13.6z"/>
			<path fill="#FFFFFF" d="M23.8,11.6c0,0-0.5-1.2,0-2.6c0,0-0.7-0.6-1.6-0.6c-0.9,0-0.9,1.1-0.9,2.2c0,1,0.4,1.7,1.1,1.7
				C23.2,12.2,23.5,11.8,23.8,11.6z"/>
		</g>
		<g>
			<circle fill="none" cx="45.6" cy="20.5" r="0.7"/>
			<path fill="#FFFFFF" d="M44.2,17.2c0,0-2.3,3.4,0.1,6.6c0,0,3.3-1.2,3.3-3.4C47.6,20.4,47.5,18.9,44.2,17.2z M45.6,21.1
				c-0.4,0-0.7-0.3-0.7-0.7c0-0.4,0.3-0.7,0.7-0.7c0.4,0,0.7,0.3,0.7,0.7C46.2,20.8,45.9,21.1,45.6,21.1z"/>
			<path fill="#FFFFFF" d="M43.6,24.1c0,0-1.6-1.7-1.4-4c0,0,0.2-2.1,1.4-3.2c0,0-1.2-3.5-4.6-2.2c0,0-0.4,0.4-0.3,2.1
				c0,0-2,3.7,0.1,7.4c0,0-0.4,1.5,0.5,1.6c0.9,0.1,2.2-0.5,2.8-1.4C42.2,24.4,43.4,24.2,43.6,24.1z"/>
			<path fill="#FFFFFF" d="M37.6,23.8c0,0-2-3.1,0-6.6c0,0-3.1-1.6-3.5-0.1c0,0-0.3,0.9,0.5,1.6c0,0-0.7,0.5-1,0.5
				c0,0-0.5,1.1,0,2.6c0,0,0.5,0.2,0.9,0.3c0,0-0.8,1.1-0.2,2C34.3,24.1,34.9,25.2,37.6,23.8z"/>
			<path fill="#FFFFFF" d="M32.7,21.8c0,0-0.5-1.3,0-2.7c0,0-0.8-0.7-1.7-0.7c-0.9,0-0.9,1.2-0.9,2.2c0,1,0.4,1.8,1.2,1.8
				C32,22.4,32.4,22,32.7,21.8z"/>
		</g>
	</g>
</g>
</svg>
