<?xml version="1.0" encoding="utf-8"?>
<!-- Generator: Adobe Illustrator 18.0.0, SVG Export Plug-In . SVG Version: 6.00 Build 0)  -->
<!DOCTYPE svg PUBLIC "-//W3C//DTD SVG 1.1//EN" "http://www.w3.org/Graphics/SVG/1.1/DTD/svg11.dtd">
<svg version="1.1" id="Capa_1" xmlns="http://www.w3.org/2000/svg" xmlns:xlink="http://www.w3.org/1999/xlink" x="0px" y="0px"
	 viewBox="0 0 51 29" enable-background="new 0 0 51 29" xml:space="preserve">
<g>
	<g id="XMLID_12_">
		<path fill="#4376AC" d="M51,23c0,3.3-2.7,6-6,6H6c-3.3,0-6-2.7-6-6V6c0-3.3,2.7-6,6-6h39c3.3,0,6,2.7,6,6V23z"/>
	</g>
	<g>
		<g>
			<g>
				<path fill="#FFFFFF" d="M13.6,19.8c0,0.6-0.5,1.1-1.1,1.1h-1.1c-0.6,0-1.1-0.5-1.1-1.1v-9c0-0.6,0.5-1.1,1.1-1.1h1.1
					c0.6,0,1.1,0.5,1.1,1.1V19.8z"/>
			</g>
			<g>
				<path fill="#FFFFFF" d="M7.4,17c-0.6,0-1.1-0.5-1.1-1.1v-1c0-0.6,0.5-1.1,1.1-1.1h9.1c0.6,0,1.1,0.5,1.1,1.1v1
					c0,0.6-0.5,1.1-1.1,1.1H7.4z"/>
			</g>
		</g>
		<g>
			<ellipse fill="none" cx="42.1" cy="14.9" rx="0.9" ry="0.9"/>
			<path fill="#FFFFFF" d="M40.3,10.7c0,0-3,4.3,0.1,8.6c0,0,4.3-1.6,4.3-4.4C44.7,14.9,44.7,12.9,40.3,10.7z M42.1,15.8
				c-0.5,0-0.9-0.4-0.9-0.9s0.4-0.9,0.9-0.9c0.5,0,0.9,0.4,0.9,0.9S42.6,15.8,42.1,15.8z"/>
			<path fill="#FFFFFF" d="M39.5,19.7c0,0-2-2.2-1.9-5.2c0,0,0.2-2.8,1.9-4.1c0,0-1.6-4.6-6-2.9c0,0-0.6,0.5-0.4,2.7
				c0,0-2.6,4.8,0.1,9.5c0,0-0.5,2,0.7,2.1c1.2,0.1,2.9-0.6,3.7-1.8C37.7,20,39.3,19.8,39.5,19.7z"/>
			<path fill="#FFFFFF" d="M31.8,19.3c0,0-2.6-4,0-8.6c0,0-4-2.1-4.6-0.2c0,0-0.4,1.2,0.6,2c0,0-0.9,0.7-1.3,0.6c0,0-0.7,1.5,0,3.4
				c0,0,0.7,0.2,1.2,0.4c0,0-1,1.4-0.3,2.6C27.4,19.6,28.3,21,31.8,19.3z"/>
			<path fill="#FFFFFF" d="M25.3,16.6c0,0-0.6-1.7,0-3.5c0,0-1-0.9-2.2-0.9c-1.2,0-1.2,1.5-1.2,2.9c0,1.4,0.5,2.3,1.5,2.3
				C24.4,17.5,24.9,16.9,25.3,16.6z"/>
		</g>
	</g>
</g>
</svg>
