<svg id="Layer_1" data-name="Layer 1" xmlns="http://www.w3.org/2000/svg" viewBox="0 0 50.66 28.9"><defs><style>.cls-1{fill:#0077b0;}.cls-2{fill:#fff;}</style></defs><title>iconoNuevoViaje</title><rect class="cls-1" width="50.66" height="28.9" rx="6" ry="6"/><path class="cls-2" d="M43.45,18.31H42.69V14.09a2.47,2.47,0,0,0-.42-1.39l-1.89-2.8a2.49,2.49,0,0,0-2.06-1.09H35.39a0.62,0.62,0,0,0-.62.62v8.88H30a2.55,2.55,0,0,1,.86,1.56h5.06a2.55,2.55,0,0,1,5,0h2.51a0.31,0.31,0,0,0,.31-0.31V18.62A0.31,0.31,0,0,0,43.45,18.31Zm-3.09-5H36.49A0.31,0.31,0,0,1,36.18,13V10.81a0.31,0.31,0,0,1,.31-0.31h2.35a0.32,0.32,0,0,1,.26.13l1.51,2.15A0.31,0.31,0,0,1,40.35,13.26Z" transform="translate(0 -0.05)"/><circle class="cls-2" cx="38.41" cy="20.19" r="1.93"/><path class="cls-2" d="M22.31,18.31a0.31,0.31,0,0,0-.31.31v0.94a0.31,0.31,0,0,0,.31.31h3.47a2.56,2.56,0,0,1,.86-1.56H22.31Z" transform="translate(0 -0.05)"/><circle class="cls-2" cx="28.3" cy="20.19" r="1.93"/><path class="cls-2" d="M32.95,6.89H23.69a0.93,0.93,0,0,0-.93.93v5.82h0v3.43a0.31,0.31,0,0,0,.05.17,0.3,0.3,0,0,0,.21.13H33.57a0.31,0.31,0,0,0,.31-0.28,0.15,0.15,0,0,0,0,0V7.82A0.93,0.93,0,0,0,32.95,6.89Z" transform="translate(0 -0.05)"/><rect class="cls-2" x="12.87" y="9" width="2.88" height="9.83" rx="1" ry="1"/><rect class="cls-2" x="9.39" y="12.48" width="9.83" height="2.88" rx="1" ry="1"/></svg>