<svg id="Layer_4" data-name="Layer 4" xmlns="http://www.w3.org/2000/svg" viewBox="0 0 50.79 28.94"><defs><style>.cls-1{fill:#0077b0;}.cls-2{fill:#fff;}</style></defs><title>iconoNuevaSolicitud</title><rect class="cls-1" width="50.79" height="28.94" rx="6" ry="6"/><rect class="cls-2" x="11.59" y="9.72" width="2.94" height="10.03" rx="1" ry="1"/><rect class="cls-2" x="8.04" y="13.27" width="10.04" height="2.94" rx="1" ry="1"/><path class="cls-2" d="M41.25,10.2a1.82,1.82,0,0,0-1.82-1.82H23.51A1.82,1.82,0,0,0,21.7,10.2v1.07H41.25V10.2Z" transform="translate(0 -0.04)"/><path class="cls-2" d="M21.7,13.8V18c0,1.45.81,2.62,1.82,2.62H39.43c1,0,1.82-1.17,1.82-2.62V13.8H21.7Zm2.81,5.66A1.53,1.53,0,1,1,26,17.92,1.53,1.53,0,0,1,24.5,19.46Z" transform="translate(0 -0.04)"/></svg>