<svg id="Layer_7" data-name="Layer 7" xmlns="http://www.w3.org/2000/svg" viewBox="0 0 50.79 28.94"><defs><style>.cls-1{fill:#0077b0;}.cls-2{fill:#fff;}</style></defs><title>iconoNuevoRol</title><rect class="cls-1" width="50.79" height="28.94" rx="6" ry="6"/><rect class="cls-2" x="11.59" y="9.72" width="2.94" height="10.03" rx="1" ry="1"/><rect class="cls-2" x="8.04" y="13.27" width="10.04" height="2.94" rx="1" ry="1"/><path class="cls-2" d="M33.26,18.21A2.39,2.39,0,0,0,31,19.86H27.85V15.41h3.27a2.4,2.4,0,1,0,0-1.48H27.85V10.66a2.4,2.4,0,1,0-1.48,0v3.27h0v1.48h0v4.45h0v1.48H31A2.39,2.39,0,1,0,33.26,18.21Z" transform="translate(0 -0.04)"/></svg>