<svg id="Layer_1" data-name="Layer 1" xmlns="http://www.w3.org/2000/svg" viewBox="0 0 50.8 28.9"><defs><style>.cls-1{fill:#0077b0;}.cls-2{fill:#fff;}</style></defs><title>iconoNuevaSiembra</title><path class="cls-1" d="M6,0H44.8a6,6,0,0,1,6,6V22.9a6,6,0,0,1-6,6H6a6,6,0,0,1-6-6V6A6,6,0,0,1,6,0Z"/><path class="cls-2" d="M12.6,9.7h0.9a0.94,0.94,0,0,1,1,1v8a0.94,0.94,0,0,1-1,1H12.6a0.94,0.94,0,0,1-1-1v-8A1,1,0,0,1,12.6,9.7Z"/><path class="cls-2" d="M9,13.3h8a0.94,0.94,0,0,1,1,1v0.9a0.94,0.94,0,0,1-1,1H9a0.94,0.94,0,0,1-1-1V14.3A1,1,0,0,1,9,13.3Z"/><path class="cls-2" d="M28.06,17.7a2.84,2.84,0,0,0,2.18,1H34.9a1,1,0,0,0,.9-0.9,0.89,0.89,0,0,0-.07-0.34H35.8a1.34,1.34,0,0,0,1.35-1.33h0A1.33,1.33,0,0,0,37,15.63h0.29a1.34,1.34,0,0,0,.69-2.5h0.41a1.35,1.35,0,0,0,0-2.7H31.72a0.41,0.41,0,0,1-.37-0.61,7.48,7.48,0,0,0,.74-2.18,1.35,1.35,0,0,0-2.66-.45,5.88,5.88,0,0,1-1.49,2.91,1.24,1.24,0,0,0-.14.19,1.24,1.24,0,0,1-1,.6H23.49v6.35h3.62A1.24,1.24,0,0,1,28.06,17.7Z"/><circle class="cls-2" cx="30.5" cy="20.91" r="0.73"/><circle class="cls-2" cx="34.25" cy="20.91" r="0.73"/><circle class="cls-2" cx="32.36" cy="22.69" r="0.73"/></svg>