<svg id="nuevo_Usuario" data-name="nuevo Usuario" xmlns="http://www.w3.org/2000/svg" xmlns:xlink="http://www.w3.org/1999/xlink" viewBox="0 0 50.79 28.94"><defs><style>.cls-1{fill:none;}.cls-2{fill:#0077b0;}.cls-3{fill:#fff;}.cls-4{clip-path:url(#clip-path);}</style><clipPath id="clip-path" transform="translate(0 -0.04)"><rect class="cls-1" x="23.34" y="6.92" width="13.87" height="16.86"/></clipPath></defs><title>iconoNuevoPersonal</title><rect class="cls-2" width="50.79" height="28.94" rx="6" ry="6"/><rect class="cls-3" x="11.59" y="9.72" width="2.94" height="10.03" rx="1" ry="1"/><rect class="cls-3" x="8.04" y="13.27" width="10.04" height="2.94" rx="1" ry="1"/><path class="cls-3" d="M33,15.61a4.5,4.5,0,0,0,.87-3.09,3.93,3.93,0,0,0-.11-0.89c0.09-.06.16-0.14,0.25-0.19l0.09-.05,0.07,0.08a3.21,3.21,0,0,0,4.66,0l0.07-.08L39,11.44a5,5,0,0,1,2.39,3.64v0.17a6.32,6.32,0,0,1-4.87,2.42,5.88,5.88,0,0,1-1.5-.21,6.22,6.22,0,0,0-1.71-1.52Z" transform="translate(0 -0.04)"/><circle class="cls-3" cx="36.53" cy="8.84" r="2.93"/><path class="cls-3" d="M29.59,24.48a8.45,8.45,0,0,0,6.52-3.23l0,0V21a7.09,7.09,0,0,0-1.49-3.35,6.23,6.23,0,0,0-1.71-1.52l-0.12-.07-0.1.1a4.31,4.31,0,0,1-.38.33,4.25,4.25,0,0,1-5.85-.33l-0.1-.1-0.12.07a6.72,6.72,0,0,0-3.22,5v0.08l0.05,0.06A8.46,8.46,0,0,0,29.59,24.48Z" transform="translate(0 -0.04)"/><path class="cls-3" d="M33.51,12.73A3.91,3.91,0,1,0,31.78,16,3.92,3.92,0,0,0,33.51,12.73Z" transform="translate(0 -0.04)"/><rect class="cls-2" width="50.79" height="28.94" rx="6" ry="6"/><rect class="cls-3" x="11.59" y="9.72" width="2.94" height="10.03" rx="1" ry="1"/><rect class="cls-3" x="8.04" y="13.27" width="10.04" height="2.94" rx="1" ry="1"/><g class="cls-4"><path class="cls-3" d="M37.26,20l-0.06.07a8.67,8.67,0,0,1-13.8,0L23.34,20V19.93a7.11,7.11,0,0,1,3.41-5.24l0.13-.08L27,14.71a4.54,4.54,0,0,0,6.6,0l0.1-.11,0.13,0.08a7.12,7.12,0,0,1,3.41,5.24V20Zm-7-4.81a4.14,4.14,0,1,0-4.14-4.14A4.15,4.15,0,0,0,30.3,15.2h0Zm0,0" transform="translate(0 -0.04)"/></g></svg>