<svg id="Layer_5" data-name="Layer 5" xmlns="http://www.w3.org/2000/svg" viewBox="0 0 50.79 28.94"><defs><style>.cls-1{fill:#0077b0;}.cls-2{fill:#fff;}</style></defs><title>iconoNuevoCliente</title><rect class="cls-1" width="50.79" height="28.94" rx="6" ry="6"/><rect class="cls-2" x="11.59" y="9.72" width="2.94" height="10.03" rx="1" ry="1"/><rect class="cls-2" x="8.04" y="13.27" width="10.04" height="2.94" rx="1" ry="1"/><path class="cls-2" d="M26.82,24.52a8.53,8.53,0,0,0,6.58-3.27l0,0V21a7.16,7.16,0,0,0-1.5-3.38,6.33,6.33,0,0,0-1.73-1.54L30.07,16l-0.1.1c-0.12.12-.25,0.22-0.38,0.33a4.29,4.29,0,0,1-5.91-.33l-0.1-.1-0.12.07a6.79,6.79,0,0,0-3.25,5v0.08l0.05,0.06A8.54,8.54,0,0,0,26.82,24.52Z" transform="translate(0 -0.04)"/><path class="cls-2" d="M30.77,12.65A4,4,0,1,0,29,15.93,3.92,3.92,0,0,0,30.77,12.65Z" transform="translate(0 -0.04)"/><path class="cls-2" d="M35.44,9.58C34,9.15,33.68,8.92,33.68,8.31s1-.78,1.57-0.78A3.28,3.28,0,0,1,36.86,8a0.34,0.34,0,0,0,.47-0.1l0.74-1.14A0.34,0.34,0,0,0,38,6.25a5,5,0,0,0-2-.7V4.84a0.34,0.34,0,0,0-.34-0.34H34.27a0.34,0.34,0,0,0-.34.34V5.65a2.76,2.76,0,0,0-2.29,2.66c0,2.25,1.93,2.84,3.21,3.22s1.65,0.61,1.65,1.12-0.94.73-1.5,0.73a2.75,2.75,0,0,1-1.88-.75,0.35,0.35,0,0,0-.24-0.11,0.36,0.36,0,0,0-.24.09l-1,.93a0.34,0.34,0,0,0,0,.48,4.6,4.6,0,0,0,2.29,1.26v0.77a0.34,0.34,0,0,0,.34.34h1.36A0.34,0.34,0,0,0,36,16.07V15.33a2.79,2.79,0,0,0,2.57-2.67c0-2.14-1.85-2.7-3.09-3.08h0Zm0,0" transform="translate(0 -0.04)"/></svg>