<svg id="Layer_6" data-name="Layer 6" xmlns="http://www.w3.org/2000/svg" viewBox="0 0 50.79 28.94"><defs><style>.cls-1{fill:#0077b0;}.cls-2{fill:#fff;}</style></defs><title>iconoNuevaEstacion</title><rect class="cls-1" width="50.79" height="28.94" rx="6" ry="6"/><rect class="cls-2" x="11.59" y="9.72" width="2.94" height="10.03" rx="1" ry="1"/><rect class="cls-2" x="8.04" y="13.27" width="10.04" height="2.94" rx="1" ry="1"/><g id="_Group_" data-name="&lt;Group&gt;"><ellipse class="cls-2" cx="27.92" cy="14.34" rx="7.27" ry="1.14"/><path class="cls-2" d="M28.14,16.43c-6.13,0-7.49-1.14-7.49-1.14v5.45c0,0.68,3.29,1.14,7.27,1.14s7.27-.57,7.27-1.14V15.29S33.6,16.32,28.14,16.43Z" transform="translate(0 -0.04)"/><ellipse class="cls-2" cx="34.39" cy="7.98" rx="5.56" ry="0.91"/><path class="cls-2" d="M34.62,9.84c-4.66,0-5.68-.91-5.68-0.91v3.41c3.63,0,6.81.57,6.81,1.7v0.68c2.73,0,4.2-.45,4.2-0.91V8.94S38.71,9.73,34.62,9.84Z" transform="translate(0 -0.04)"/></g></svg>