<svg id="Capa_1" data-name="Capa 1" xmlns="http://www.w3.org/2000/svg" viewBox="0 0 10.91 14"><defs><style>.cls-1{fill:#0077b0;}</style></defs><title>borrar</title><path class="cls-1" d="M9.8,1.8h-1a0.22,0.22,0,0,1-.2-0.2V1.2A1.16,1.16,0,0,0,7.4,0H3.6A1.16,1.16,0,0,0,2.4,1.2V1.6a0.22,0.22,0,0,1-.2.2h-1A1.22,1.22,0,0,0,0,3V4.1a0.22,0.22,0,0,0,.2.2H10.7a0.22,0.22,0,0,0,.2-0.2V3A1.07,1.07,0,0,0,9.8,1.8h0ZM7.6,1.6a0.22,0.22,0,0,1-.2.2H3.6a0.22,0.22,0,0,1-.2-0.2V1.2A0.22,0.22,0,0,1,3.6,1H7.4a0.22,0.22,0,0,1,.2.2V1.6Z"/><path class="cls-1" d="M9.7,5H1.3a0.25,0.25,0,0,0-.3.2v7.6A1.22,1.22,0,0,0,2.2,14H8.7a1.16,1.16,0,0,0,1.2-1.2V5.2C10,5.1,9.9,5,9.7,5h0ZM3.5,12.3a0.47,0.47,0,0,1-.5.5,0.47,0.47,0,0,1-.5-0.5V6.5A0.63,0.63,0,0,1,3,6a0.47,0.47,0,0,1,.5.5v5.8Zm2.5,0a0.47,0.47,0,0,1-.5.5A0.47,0.47,0,0,1,5,12.3V6.5A0.47,0.47,0,0,1,5.5,6a0.47,0.47,0,0,1,.5.5v5.8Zm2.4,0a0.5,0.5,0,0,1-1,0V6.5A0.63,0.63,0,0,1,8,6a0.47,0.47,0,0,1,.5.5v5.8H8.4Z"/></svg>