<?xml version="1.0" encoding="utf-8"?>
<!-- Generator: Adobe Illustrator 18.0.0, SVG Export Plug-In . SVG Version: 6.00 Build 0)  -->
<!DOCTYPE svg PUBLIC "-//W3C//DTD SVG 1.1//EN" "http://www.w3.org/Graphics/SVG/1.1/DTD/svg11.dtd">
<svg version="1.1" id="Capa_1" xmlns="http://www.w3.org/2000/svg" xmlns:xlink="http://www.w3.org/1999/xlink" x="0px" y="0px"
	 viewBox="0 0 16 14" enable-background="new 0 0 16 14" xml:space="preserve">
<g>
	<path fill="#4376AC" d="M4.3,9v2.4h2.5l7.1-7L11.5,2L4.3,9z M15.8,2.5c0.3-0.3,0.3-0.6,0-0.9l-1.5-1.5c-0.3-0.2-0.7-0.2-0.9,0
		l-1.2,1.1l2.5,2.4L15.8,2.5z M15.8,2.5"/>
	<path fill="none" stroke="#4376AC" stroke-width="1.8644" stroke-miterlimit="10" d="M12.4,8.7v3.6c0,0.4-0.3,0.7-0.7,0.7h-10
		C1.3,13,1,12.7,1,12.3v-10c0-0.4,0.3-0.7,0.7-0.7h8.1"/>
</g>
</svg>
