<svg id="Layer_1" data-name="Layer 1" xmlns="http://www.w3.org/2000/svg" viewBox="0 0 20.8 13"><defs><style>.cls-1{fill:#0077b0;}</style></defs><title>iconoVerAzul</title><path class="cls-1" d="M10.4,0A11.65,11.65,0,0,0,0,6.5a11.57,11.57,0,0,0,20.8,0A11.65,11.65,0,0,0,10.4,0h0Zm5.13,3.45a9.89,9.89,0,0,1,3,3.05,9.89,9.89,0,0,1-3,3.05,9.53,9.53,0,0,1-10.26,0,9.89,9.89,0,0,1-3-3.05,9.89,9.89,0,0,1,3-3.05L5.51,3.3a5.2,5.2,0,1,0,9.77,0l0.24,0.15h0Zm-5.13,1a2,2,0,1,1-2-1.95,2,2,0,0,1,2,1.95h0Zm0,0" transform="translate(0)"/></svg>