<svg id="Capa_1" data-name="Capa 1" xmlns="http://www.w3.org/2000/svg" viewBox="0 0 16 10.39"><defs><style>.cls-1{fill:#4376ac;}</style></defs><title>IconoCepa</title><path class="cls-1" d="M13,5.26a5.48,5.48,0,0,0,.1,6.1s3-1.14,3-3.14C16,8.22,16,6.79,13,5.26Zm1.24,3.62a0.57,0.57,0,1,1,.57-0.57A0.55,0.55,0,0,1,14.19,8.88Z" transform="translate(0 -2.89)"/><path class="cls-1" d="M12.38,11.64A5.72,5.72,0,0,1,11,8a4.63,4.63,0,0,1,1.33-2.86s-1.14-3.24-4.19-2a2.68,2.68,0,0,0-.29,1.9A7.52,7.52,0,0,0,8,11.84s-0.38,1.43.48,1.43A2.83,2.83,0,0,0,11,11.93C11,11.84,12.19,11.74,12.38,11.64Z" transform="translate(0 -2.89)"/><path class="cls-1" d="M7,11.36a6,6,0,0,1,0-6.1s-2.76-1.43-3.24-.1A1.32,1.32,0,0,0,4.19,6.6a3.43,3.43,0,0,1-.86.48,3.39,3.39,0,0,0,0,2.38,8.09,8.09,0,0,0,.86.29A2,2,0,0,0,4,11.55C3.9,11.55,4.48,12.6,7,11.36Z" transform="translate(0 -2.89)"/><path class="cls-1" d="M2.38,9.45A3.72,3.72,0,0,1,2.38,7,2.61,2.61,0,0,0,.86,6.41C0,6.41,0,7.45,0,8.5s0.38,1.62,1,1.62A2.45,2.45,0,0,0,2.38,9.45Z" transform="translate(0 -2.89)"/></svg>