<?xml version="1.0" encoding="utf-8"?>
<!-- Generator: Adobe Illustrator 18.0.0, SVG Export Plug-In . SVG Version: 6.00 Build 0)  -->
<!DOCTYPE svg PUBLIC "-//W3C//DTD SVG 1.1//EN" "http://www.w3.org/Graphics/SVG/1.1/DTD/svg11.dtd">
<svg version="1.1" id="Capa_1" xmlns="http://www.w3.org/2000/svg" xmlns:xlink="http://www.w3.org/1999/xlink" x="0px" y="0px"
	 viewBox="0 0 116 49" enable-background="new 0 0 116 49" xml:space="preserve">
<g id="XMLID_130_">
	<path fill="#4376AC" d="M0,27.1c0.1-0.5,0.2-1,0.3-1.5C0.5,24,1,22.4,1.7,21c0.2-0.3,0.4-0.5,0.7-0.8c1.7-1.6,3.5-3.2,5.2-4.8
		c1.3-1.3,2.6-2.6,3.9-3.8c1.1-1,2.2-1.8,3.7-2.1c0.3-0.1,0.6-0.1,0.9-0.1c2.3,0,4.5,0,6.8,0c2.2,0,4.1,1.5,4.6,3.7
		c0.1,0.3,0.1,0.6,0.1,0.8c0,2.4,0,4.8,0,7.2c0,2-1.5,4-3.7,4.4c-0.3,0.1-0.7,0.1-1,0.1c-4.2,0-8.3,0-12.5,0c-0.6,0-1-0.1-1.4-0.7
		c-0.6-0.9,0.1-2,1.1-2.1c0.2,0,0.4,0,0.5,0c4,0,8.1,0,12.1,0c1.2,0,2-0.8,2-2c0-2.2,0-4.4,0-6.7c0-1.2-0.8-2-2.1-2c-2,0-4,0-5.9,0
		c-0.9,0-1.7,0.2-2.3,0.7c-1.3,1-2.6,2-3.7,3.2c-2,2.1-4.1,3.9-6.2,5.9c-0.3,0.3-0.5,0.6-0.7,1c-0.8,1.8-1.1,3.7-1.1,5.6
		c0,3.2,0,6.3,0,9.5c0,0.3,0,0.5,0.1,0.7c0.1,0.9,0.8,1.5,1.8,1.5c3.5,0,7,0,10.4,0c1.2,0,1.7,0.5,1.8,1.7c0.1,1.7,1,3,2.5,3.8
		c2.8,1.5,6.1-0.3,6.7-3.4c0.3-1.7-0.7-3.8-2.3-4.7c-1.5-0.8-3-0.8-4.5-0.1c-0.2,0.1-0.3,0.2-0.5,0.2c-0.7,0.3-1.4,0-1.8-0.7
		c-0.3-0.6-0.1-1.4,0.5-1.8c1.4-0.9,2.9-1.2,4.5-1.1c2.4,0.2,4.3,1.4,5.6,3.4c2.2,3.3,1.1,8.1-2.3,10.2c-1.2,0.7-2.5,1.1-3.8,1.1
		c-2.1,0-3.9-0.7-5.4-2.3c-0.9-1-1.5-2.1-1.8-3.3C14.3,43,14,43,13.7,43c-2.9,0-5.9,0-8.8,0c-1.9,0-3.4-0.8-4.3-2.5
		c-0.2-0.4-0.3-0.8-0.4-1.2c-0.1-0.2-0.1-0.4-0.2-0.6C0,34.8,0,30.9,0,27.1z"/>
	<path fill="#4376AC" d="M72.9,7.3c12.6,0,25.2,0,37.8,0c2.8,0,4.7,2,5.1,4.2c0.1,0.5,0.2,1,0.2,1.5c0,7.7,0,15.4,0,23
		c0,2-0.7,3.7-2.4,4.9c-0.8,0.6-1.7,0.8-2.7,0.8c-22.8,0-45.5,0-68.3,0c-2.6,0-5.2,0-7.8,0c-3,0.1-4.8-2.3-5.2-4.7
		c-0.1-0.5-0.1-1.1-0.1-1.6c0-7.4,0-14.9,0-22.3c0-1.7,0.5-3.2,1.8-4.5c0.9-0.9,2-1.3,3.2-1.3C47.4,7.3,60.1,7.3,72.9,7.3
		C72.9,7.3,72.9,7.3,72.9,7.3z M43.7,36.8L43.7,36.8c2.6,0,5.2,0,7.8,0c1.2,0,1.7-0.5,1.7-1.7c0-2.6,0-5.2,0-7.8
		c0-1.3-0.5-1.8-1.8-1.8c-4.1,0-8.3,0-12.4,0c-1,0-1.4-0.4-1.4-1.4c0-1.2,0-2.5,0-3.7c0-1,0.5-1.4,1.4-1.4c1.3,0,2.6,0,3.8,0
		c3.3,0,6.6,0,9.9,0c0.6,0,0.6,0,0.6-0.6c0-0.4,0-0.8,0-1.2c0-0.7,0-0.7-0.6-0.7c-5.2,0-10.5,0-15.7,0c-1.1,0-1.7,0.5-1.7,1.6
		c0,2.6,0,5.3,0,7.9c0,1.3,0.5,1.7,1.8,1.7c4.2,0,8.3,0,12.5,0c1,0,1.4,0.4,1.4,1.4c0,1.2,0,2.4,0,3.6c0,1-0.4,1.5-1.5,1.5
		c-2.3,0-4.6,0-6.9,0c-2.3,0-4.6,0-6.9,0c-0.4,0-0.5,0.1-0.5,0.5c0,0.4,0,0.9,0,1.3c0,0.6,0,0.6,0.6,0.6
		C38.4,36.8,41.1,36.8,43.7,36.8z M57.7,19.4C57.7,19.4,57.8,19.4,57.7,19.4c0.2,0.2,0.3,0.5,0.5,0.7c1.6,3.2,3.1,6.3,4.7,9.5
		c0.2,0.3,0.4,0.5,0.8,0.5c0.5,0,1,0,1.4,0c0.4,0,0.6-0.2,0.8-0.5c1.2-2.5,2.5-5.1,3.7-7.6c0.4-0.9,0.9-1.8,1.3-2.6
		c0.1,0.1,0.1,0.2,0.1,0.3c0,1.8,0,3.6,0,5.5c0,3.7,0,7.5,0,11.2c0,0.4,0.1,0.5,0.5,0.5c0.5,0,0.9,0,1.4,0c0.3,0,0.4-0.1,0.4-0.4
		c0-6.3,0-12.6,0-18.8c0-0.6-0.2-0.8-0.8-0.8c-0.8,0-1.5,0-2.3,0c-0.4,0-0.7,0.2-0.8,0.5c-0.9,2-1.9,4-2.8,6
		c-0.6,1.2-1.1,2.4-1.7,3.6c-0.1,0.2-0.3,0.3-0.5,0.3c-0.2,0-0.4-0.2-0.5-0.3c-0.2-0.2-0.3-0.5-0.4-0.8c-1.4-2.9-2.8-5.8-4.3-8.8
		c-0.2-0.4-0.4-0.5-0.8-0.5c-0.7,0-1.3,0-2,0c-0.9,0-1.1,0.2-1,1.1c0,5.9,0,11.9,0,17.8c0,0.3,0,0.6,0,0.8c0,0.3,0.1,0.4,0.4,0.4
		c0.5,0,0.9,0,1.4,0c0.6,0,0.6,0,0.6-0.6c0-3.4,0-6.7,0-10.1C57.7,23.9,57.7,21.7,57.7,19.4z M88.9,26.2
		C88.9,26.2,88.9,26.2,88.9,26.2c0,3,0,6,0,9c0,1,0.6,1.6,1.6,1.6c2.7,0,5.4,0,8.1,0c1,0,1.6-0.6,1.6-1.6c0-2.7,0-5.3,0-8
		c0-1-0.6-1.6-1.6-1.6c-2.3,0-4.5,0-6.8,0c-0.4,0-0.5-0.1-0.5-0.5c0-2.6,0-5.3,0-7.9c0-0.3-0.1-0.5-0.5-0.5c-0.4,0-0.9,0-1.3,0
		c-0.6,0-0.6,0-0.6,0.6C88.9,20.2,88.9,23.2,88.9,26.2z M81.1,25.6C81.1,25.6,81.1,25.6,81.1,25.6c-1.3,0-2.7,0-4,0
		c-1,0-1.6,0.6-1.6,1.6c0,2.7,0,5.3,0,8c0,1,0.6,1.6,1.6,1.6c2.7,0,5.4,0,8,0c1,0,1.6-0.6,1.6-1.6c0-2.6,0-5.3,0-7.9
		c0-1-0.6-1.6-1.6-1.6C83.8,25.6,82.5,25.6,81.1,25.6z M109.1,16.8c-0.6,0-1.2,0-1.8,0c-0.4,0-0.5,0.1-0.5,0.5c0,3.7,0,7.4,0,11
		c0,2.6,0,5.3,0,7.9c0,0.4,0.1,0.6,0.5,0.5c0.4,0,0.9,0,1.3,0c0.4,0,0.5-0.1,0.5-0.5c0-6.3,0-12.6,0-18.9
		C109.1,17.2,109.1,17,109.1,16.8z M104.6,31.2c0-1.7,0-3.4,0-5.1c0-0.3-0.1-0.5-0.5-0.5c-0.5,0-1,0-1.5,0c-0.3,0-0.4,0.1-0.4,0.4
		c0,3.5,0,6.9,0,10.4c0,0.3,0.1,0.4,0.4,0.4c0.5,0,1,0,1.5,0c0.4,0,0.5-0.1,0.5-0.5C104.6,34.6,104.6,32.9,104.6,31.2z M103.5,21.2
		c-0.9,0-1.2,0.3-1.2,1.1c0,0.9,0.3,1.2,1.2,1.2c0.8,0,1.2-0.3,1.2-1.1C104.6,21.5,104.4,21.2,103.5,21.2z"/>
	<path fill="#4376AC" d="M17.3,0c1,0,2.1,0,3.1,0c0.3,0,0.6,0.1,0.8,0.3c0.2,0.3,0,0.6-0.3,0.8c-0.5,0.4-0.9,0.9-1.4,1.3
		c-0.2,0.2-0.5,0.3-0.7,0.3c-1.3,0-2.7,0-4,0c-1.9,0-3.5,0.6-5,1.7c-1.3,1-2.4,2.1-3.5,3.1C6,7.9,5.7,8,5.3,8C4.7,8,4,8,3.4,7.9
		c-0.2,0-0.5-0.2-0.5-0.4C2.8,7.4,2.9,7.1,3,7C4.5,5.4,6,3.7,7.8,2.3C9.8,0.8,12,0,14.5,0C15.4,0,16.4,0,17.3,0
		C17.3,0,17.3,0,17.3,0z"/>
	<path fill="#4376AC" d="M16.7,7.4c-0.7,0-1.3,0-2,0c-0.4,0-0.8,0.1-1.2,0.3c-0.9,0.6-1.7,1.2-2.6,1.8c-0.2,0.2-0.5,0.3-0.8,0.3
		c-0.7,0-1.3,0-2,0C8,9.8,7.7,9.7,7.7,9.5C7.6,9.4,7.7,9,7.8,8.9C8.8,8,9.7,7,10.8,6.2c0.8-0.7,1.7-1.3,2.8-1.4
		c0.8-0.1,1.7-0.1,2.6-0.1c1.4,0,2.7,0,4.1,0c0.2,0,0.5,0,0.7,0c0.2,0,0.4,0.2,0.4,0.3c0.1,0.1,0,0.4-0.1,0.5
		c-0.6,0.6-1.1,1.2-1.7,1.7c-0.1,0.1-0.4,0.2-0.6,0.2C18.2,7.4,17.5,7.4,16.7,7.4z"/>
	<path fill="#FFFFFF" d="M43.7,36.8c-2.7,0-5.3,0-8,0c-0.6,0-0.6,0-0.6-0.6c0-0.4,0-0.9,0-1.3c0-0.4,0.1-0.5,0.5-0.5
		c2.3,0,4.6,0,6.9,0c2.3,0,4.6,0,6.9,0c1,0,1.5-0.4,1.5-1.5c0-1.2,0-2.4,0-3.6c0-1-0.5-1.4-1.4-1.4c-4.2,0-8.3,0-12.5,0
		c-1.3,0-1.8-0.5-1.8-1.7c0-2.6,0-5.3,0-7.9c0-1.1,0.5-1.6,1.7-1.6c5.2,0,10.5,0,15.7,0c0.6,0,0.6,0,0.6,0.7c0,0.4,0,0.8,0,1.2
		c0,0.5,0,0.6-0.6,0.6c-3.3,0-6.6,0-9.9,0c-1.3,0-2.6,0-3.8,0c-1,0-1.4,0.4-1.4,1.4c0,1.2,0,2.5,0,3.7c0,1,0.4,1.4,1.4,1.4
		c4.1,0,8.3,0,12.4,0c1.3,0,1.8,0.5,1.8,1.8c0,2.6,0,5.2,0,7.8c0,1.2-0.5,1.7-1.7,1.7C48.9,36.8,46.3,36.8,43.7,36.8L43.7,36.8z"/>
	<path fill="#FFFFFF" d="M57.7,19.4c0,2.2,0,4.4,0,6.7c0,3.4,0,6.7,0,10.1c0,0.6,0,0.6-0.6,0.6c-0.5,0-0.9,0-1.4,0
		c-0.3,0-0.4-0.1-0.4-0.4c0-0.3,0-0.6,0-0.8c0-5.9,0-11.9,0-17.8c0-0.9,0.2-1.1,1-1.1c0.7,0,1.3,0,2,0c0.4,0,0.7,0.2,0.8,0.5
		c1.4,2.9,2.8,5.8,4.3,8.8c0.1,0.3,0.2,0.5,0.4,0.8c0.1,0.2,0.3,0.3,0.5,0.3c0.2,0,0.4-0.2,0.5-0.3c0.6-1.2,1.1-2.4,1.7-3.6
		c0.9-2,1.9-4,2.8-6c0.2-0.4,0.4-0.5,0.8-0.5c0.8,0,1.5,0,2.3,0c0.6,0,0.8,0.2,0.8,0.8c0,6.3,0,12.6,0,18.8c0,0.3-0.1,0.5-0.4,0.4
		c-0.5,0-0.9,0-1.4,0c-0.4,0-0.5-0.1-0.5-0.5c0-3.7,0-7.5,0-11.2c0-1.8,0-3.6,0-5.5c0-0.1,0-0.2-0.1-0.3c-0.4,0.9-0.9,1.8-1.3,2.6
		c-1.2,2.5-2.5,5.1-3.7,7.6c-0.2,0.4-0.4,0.5-0.8,0.5c-0.5,0-1,0-1.4,0c-0.4,0-0.6-0.2-0.8-0.5c-1.6-3.2-3.1-6.3-4.7-9.5
		C58.1,19.9,57.9,19.7,57.7,19.4C57.8,19.4,57.7,19.4,57.7,19.4z"/>
	<path fill="#FFFFFF" d="M88.9,26.2c0-3,0-6,0-9c0-0.6,0-0.6,0.6-0.6c0.4,0,0.9,0,1.3,0c0.3,0,0.5,0.1,0.5,0.5c0,2.6,0,5.3,0,7.9
		c0,0.4,0.1,0.5,0.5,0.5c2.3,0,4.5,0,6.8,0c1,0,1.6,0.6,1.6,1.6c0,2.7,0,5.3,0,8c0,1-0.6,1.6-1.6,1.6c-2.7,0-5.4,0-8.1,0
		c-1,0-1.6-0.6-1.6-1.6C88.9,32.1,88.9,29.1,88.9,26.2C88.9,26.2,88.9,26.2,88.9,26.2z M98,31.2c0-0.8,0-1.6,0-2.4c0-0.7-0.3-1-1-1
		c-1.6,0-3.3,0-4.9,0c-0.7,0-0.9,0.3-1,1c0,1.6,0,3.2,0,4.7c0,0.7,0.3,1,1,1c1.6,0,3.2,0,4.8,0c0.7,0,1-0.3,1-1
		C98,32.8,98,32,98,31.2z"/>
	<path fill="#FFFFFF" d="M81.1,25.6c1.3,0,2.7,0,4,0c1,0,1.6,0.6,1.6,1.6c0,2.6,0,5.3,0,7.9c0,1-0.6,1.6-1.6,1.6c-2.7,0-5.4,0-8,0
		c-1,0-1.6-0.6-1.6-1.6c0-2.7,0-5.3,0-8c0-1,0.6-1.6,1.6-1.6C78.4,25.6,79.8,25.6,81.1,25.6C81.1,25.6,81.1,25.6,81.1,25.6z
		 M81.1,34.5L81.1,34.5c0.8,0,1.6,0,2.4,0c0.7,0,1-0.3,1-1c0-1.6,0-3.2,0-4.7c0-0.7-0.3-1-1-1c-1.6,0-3.2,0-4.8,0c-0.7,0-1,0.3-1,1
		c0,1.6,0,3.2,0,4.8c0,0.6,0.3,0.9,1,0.9C79.5,34.5,80.3,34.5,81.1,34.5z"/>
	<path fill="#FFFFFF" d="M109.1,16.8c0,0.2,0,0.4,0,0.5c0,6.3,0,12.6,0,18.9c0,0.4-0.1,0.6-0.5,0.5c-0.4,0-0.9,0-1.3,0
		c-0.4,0-0.5-0.1-0.5-0.5c0-2.6,0-5.3,0-7.9c0-3.7,0-7.4,0-11c0-0.4,0.1-0.5,0.5-0.5C107.9,16.8,108.5,16.8,109.1,16.8z"/>
	<path fill="#FFFFFF" d="M104.6,31.2c0,1.7,0,3.4,0,5.1c0,0.4-0.1,0.5-0.5,0.5c-0.5,0-1,0-1.5,0c-0.3,0-0.4-0.1-0.4-0.4
		c0-3.5,0-6.9,0-10.4c0-0.3,0.1-0.4,0.4-0.4c0.5,0,1,0,1.5,0c0.3,0,0.5,0.1,0.5,0.5C104.6,27.8,104.6,29.5,104.6,31.2z"/>
	<path fill="#FFFFFF" d="M103.5,21.2c0.9,0,1.2,0.3,1.2,1.1c0,0.8-0.3,1.1-1.2,1.1c-0.9,0-1.2-0.3-1.2-1.2
		C102.3,21.5,102.6,21.2,103.5,21.2z"/>
	<path fill="#4376AC" d="M98,31.2c0,0.8,0,1.6,0,2.3c0,0.7-0.3,1-1,1c-1.6,0-3.2,0-4.8,0c-0.7,0-1-0.3-1-1c0-1.6,0-3.2,0-4.7
		c0-0.7,0.3-1,1-1c1.6,0,3.3,0,4.9,0c0.7,0,1,0.3,1,1C98,29.6,98,30.4,98,31.2z"/>
	<path fill="#4376AC" d="M81.1,34.5c-0.8,0-1.6,0-2.4,0c-0.7,0-1-0.3-1-0.9c0-1.6,0-3.2,0-4.8c0-0.7,0.3-1,1-1c1.6,0,3.2,0,4.8,0
		c0.7,0,1,0.3,1,1c0,1.6,0,3.2,0,4.7c0,0.7-0.3,1-1,1C82.7,34.5,81.9,34.5,81.1,34.5L81.1,34.5z"/>
</g>
</svg>
