<?xml version="1.0" encoding="utf-8"?>
<!-- Generator: Adobe Illustrator 19.2.1, SVG Export Plug-In . SVG Version: 6.00 Build 0)  -->
<svg version="1.1" id="Layer_1" xmlns="http://www.w3.org/2000/svg" xmlns:xlink="http://www.w3.org/1999/xlink" x="0px" y="0px"
	 viewBox="0 0 18.8 17" style="enable-background:new 0 0 18.8 17;" xml:space="preserve">
<style type="text/css">
	.st0{fill:#0077B0;}
</style>
<g>
	<path class="st0" d="M8.8,1.3c-0.5,0-1,0.4-1,1v12.8c0,0.5,0.4,1,1,1h1.7c0.5,0,1-0.4,1-1V12c0-0.5,0.4-1,1-1h1.9c0.5,0,1,0.4,1,1
		v3.1c0,0.5,0.4,1,1,1h1.4c0.5,0,1-0.4,1-1V2.3c0-0.5-0.4-1-1-1H8.8z M16.5,5.5c0,0.5-0.4,1-1,1h-4.1c-0.5,0-1-0.4-1-1s0.4-1,1-1
		h4.1C16.1,4.6,16.5,5,16.5,5.5z"/>
	<path class="st0" d="M7.9,13.8V9.7c0-0.5-0.4-1.2-0.8-1.5L5.1,7C4.6,6.7,3.8,6.7,3.3,7L0.9,8.2C0.4,8.5,0,9.1,0,9.7v5.4
		c0,0.5,0.4,1,1,1h4.4h1.5h3.7v-2.4H7.9z M5.5,10.6c0,0.2-0.1,0.3-0.3,0.3H2.9c-0.2,0-0.3-0.1-0.3-0.3V9.9c0-0.2,0.1-0.3,0.3-0.3
		h2.2c0.2,0,0.3,0.1,0.3,0.3V10.6z"/>
</g>
</svg>
