<svg id="Layer_1" data-name="Layer 1" xmlns="http://www.w3.org/2000/svg" viewBox="0 0 13.49 15.4"><defs><style>.cls-1{fill:#0077b0;}</style></defs><title>reactivar</title><path class="cls-1" d="M9.25,2.53V5a4.5,4.5,0,1,1-4.5,0V2.53A6.74,6.74,0,1,0,9.25,2.53Z" transform="translate(-0.26 -0.23)"/><path class="cls-1" d="M7,7A1.13,1.13,0,0,0,8.12,5.85V1.36a1.12,1.12,0,0,0-2.25,0v4.5A1.13,1.13,0,0,0,7,7Z" transform="translate(-0.26 -0.23)"/><path class="cls-1" d="M9.28,2.58V5A4.53,4.53,0,1,1,4.72,5V2.58A6.71,6.71,0,1,0,9.28,2.58Z" transform="translate(-0.26 -0.23)"/><path class="cls-1" d="M7,6.94A1.09,1.09,0,0,0,8.09,5.85V1.36a1.09,1.09,0,0,0-2.18,0v4.5A1.09,1.09,0,0,0,7,6.94Z" transform="translate(-0.26 -0.23)"/><path class="cls-1" d="M9.31,2.64V5A4.56,4.56,0,1,1,4.69,5V2.64A6.68,6.68,0,1,0,9.31,2.64Z" transform="translate(-0.26 -0.23)"/><path class="cls-1" d="M7,6.91A1.06,1.06,0,0,0,8.06,5.85V1.36a1.06,1.06,0,0,0-2.12,0v4.5A1.06,1.06,0,0,0,7,6.91Z" transform="translate(-0.26 -0.23)"/><path class="cls-1" d="M9.35,2.69V4.94a4.59,4.59,0,1,1-4.69,0V2.69A6.65,6.65,0,1,0,9.35,2.69Z" transform="translate(-0.26 -0.23)"/><path class="cls-1" d="M7,6.88a1,1,0,0,0,1-1V1.36A1,1,0,0,0,6,1.36v4.5A1,1,0,0,0,7,6.88Z" transform="translate(-0.26 -0.23)"/><path class="cls-1" d="M9.38,2.74V4.93a4.63,4.63,0,1,1-4.76,0V2.74a6.6,6.6,0,1,0,9,6.14A6.57,6.57,0,0,0,9.38,2.74Z" transform="translate(-0.26 -0.23)"/><path class="cls-1" d="M7,6.85a1,1,0,0,0,1-1V1.36a1,1,0,0,0-2,0v4.5A1,1,0,0,0,7,6.85Z" transform="translate(-0.26 -0.23)"/><path class="cls-1" d="M9.41,2.8V4.91a4.66,4.66,0,1,1-4.82,0V2.8a6.57,6.57,0,1,0,9,6.09A6.53,6.53,0,0,0,9.41,2.8Z" transform="translate(-0.26 -0.23)"/><path class="cls-1" d="M7,6.81a1,1,0,0,0,1-1V1.36A1,1,0,0,0,6,1.36v4.5A1,1,0,0,0,7,6.81Z" transform="translate(-0.26 -0.23)"/><path class="cls-1" d="M9.44,2.85v2a4.69,4.69,0,1,1-4.89,0v-2a6.53,6.53,0,1,0,9,6A6.49,6.49,0,0,0,9.44,2.85Z" transform="translate(-0.26 -0.23)"/><path class="cls-1" d="M7,6.78a0.93,0.93,0,0,0,.93-0.93V1.36a0.93,0.93,0,0,0-1.86,0v4.5A0.93,0.93,0,0,0,7,6.78Z" transform="translate(-0.26 -0.23)"/><path class="cls-1" d="M9.48,2.9v2a4.72,4.72,0,1,1-5,0v-2a6.45,6.45,0,0,0-4,6,6.51,6.51,0,1,0,13,0A6.45,6.45,0,0,0,9.48,2.9Z" transform="translate(-0.26 -0.23)"/><path class="cls-1" d="M7,6.75a0.9,0.9,0,0,0,.9-0.9V1.36a0.9,0.9,0,0,0-1.79,0v4.5A0.9,0.9,0,0,0,7,6.75Z" transform="translate(-0.26 -0.23)"/><path class="cls-1" d="M9.51,3v1.9a4.76,4.76,0,1,1-5,0V3a6.41,6.41,0,0,0-4,5.93,6.48,6.48,0,1,0,13,0A6.41,6.41,0,0,0,9.51,3Z" transform="translate(-0.26 -0.23)"/><path class="cls-1" d="M7,6.71a0.87,0.87,0,0,0,.86-0.86V1.36a0.86,0.86,0,0,0-1.73,0v4.5A0.87,0.87,0,0,0,7,6.71Z" transform="translate(-0.26 -0.23)"/><path class="cls-1" d="M9.54,3V4.84a4.79,4.79,0,1,1-5.08,0V3A6.37,6.37,0,0,0,.55,8.89a6.45,6.45,0,1,0,12.9,0A6.37,6.37,0,0,0,9.54,3Z" transform="translate(-0.26 -0.23)"/><path class="cls-1" d="M7,6.68a0.83,0.83,0,0,0,.83-0.83V1.36a0.83,0.83,0,0,0-1.66,0v4.5A0.83,0.83,0,0,0,7,6.68Z" transform="translate(-0.26 -0.23)"/><path class="cls-1" d="M9.57,3.07V4.82a4.82,4.82,0,1,1-5.15,0V3.07A6.33,6.33,0,0,0,.58,8.89a6.42,6.42,0,1,0,12.83,0A6.33,6.33,0,0,0,9.57,3.07Z" transform="translate(-0.26 -0.23)"/><path class="cls-1" d="M7,6.65a0.8,0.8,0,0,0,.8-0.8V1.36a0.8,0.8,0,0,0-1.59,0v4.5A0.8,0.8,0,0,0,7,6.65Z" transform="translate(-0.26 -0.23)"/><path class="cls-1" d="M9.61,3.12V4.8a4.86,4.86,0,1,1-5.22,0V3.12A6.29,6.29,0,0,0,.62,8.89a6.38,6.38,0,1,0,12.77,0A6.29,6.29,0,0,0,9.61,3.12Z" transform="translate(-0.26 -0.23)"/><path class="cls-1" d="M7,6.62a0.77,0.77,0,0,0,.76-0.76V1.36a0.76,0.76,0,0,0-1.53,0v4.5A0.77,0.77,0,0,0,7,6.62Z" transform="translate(-0.26 -0.23)"/><path class="cls-1" d="M9.64,3.17V4.79a4.89,4.89,0,1,1-5.28,0V3.17A6.25,6.25,0,0,0,.65,8.89a6.35,6.35,0,1,0,12.7,0A6.25,6.25,0,0,0,9.64,3.17Z" transform="translate(-0.26 -0.23)"/><path class="cls-1" d="M7,6.58a0.73,0.73,0,0,0,.73-0.73V1.36a0.73,0.73,0,0,0-1.46,0v4.5A0.73,0.73,0,0,0,7,6.58Z" transform="translate(-0.26 -0.23)"/><path class="cls-1" d="M9.67,3.23V4.77a4.92,4.92,0,1,1-5.35,0V3.23A6.22,6.22,0,0,0,.68,8.89a6.32,6.32,0,1,0,12.64,0A6.22,6.22,0,0,0,9.67,3.23Z" transform="translate(-0.26 -0.23)"/><path class="cls-1" d="M7,6.55a0.7,0.7,0,0,0,.7-0.7V1.36a0.7,0.7,0,0,0-1.4,0v4.5A0.7,0.7,0,0,0,7,6.55Z" transform="translate(-0.26 -0.23)"/><path class="cls-1" d="M9.71,3.28V4.75a5,5,0,1,1-5.41,0V3.28A6.18,6.18,0,0,0,.71,8.89a6.29,6.29,0,1,0,12.57,0A6.18,6.18,0,0,0,9.71,3.28Z" transform="translate(-0.26 -0.23)"/><path class="cls-1" d="M7,6.52a0.67,0.67,0,0,0,.67-0.67V1.36a0.67,0.67,0,0,0-1.33,0v4.5A0.67,0.67,0,0,0,7,6.52Z" transform="translate(-0.26 -0.23)"/><path class="cls-1" d="M9.74,3.33v1.4a5,5,0,1,1-5.48,0V3.33A6.14,6.14,0,0,0,.75,8.89a6.25,6.25,0,1,0,12.51,0A6.14,6.14,0,0,0,9.74,3.33Z" transform="translate(-0.26 -0.23)"/><path class="cls-1" d="M7,6.49a0.64,0.64,0,0,0,.63-0.63V1.36a0.63,0.63,0,0,0-1.27,0v4.5A0.64,0.64,0,0,0,7,6.49Z" transform="translate(-0.26 -0.23)"/><path class="cls-1" d="M9.77,3.39V4.72a5,5,0,1,1-5.54,0V3.39A6.11,6.11,0,0,0,.78,8.89a6.22,6.22,0,1,0,12.44,0A6.11,6.11,0,0,0,9.77,3.39Z" transform="translate(-0.26 -0.23)"/><path class="cls-1" d="M7,6.45a0.6,0.6,0,0,0,.6-0.6V1.36a0.6,0.6,0,0,0-1.2,0v4.5A0.6,0.6,0,0,0,7,6.45Z" transform="translate(-0.26 -0.23)"/><path class="cls-1" d="M9.8,3.44V4.7a5.05,5.05,0,1,1-5.61,0V3.44A6.07,6.07,0,0,0,.81,8.89a6.19,6.19,0,1,0,12.38,0A6.07,6.07,0,0,0,9.8,3.44Z" transform="translate(-0.26 -0.23)"/><path class="cls-1" d="M7,6.42a0.57,0.57,0,0,0,.57-0.57V1.36a0.57,0.57,0,0,0-1.14,0v4.5A0.57,0.57,0,0,0,7,6.42Z" transform="translate(-0.26 -0.23)"/><path class="cls-1" d="M9.84,3.5V4.68a5.08,5.08,0,1,1-5.67,0V3.5A6,6,0,0,0,.84,8.89a6.16,6.16,0,1,0,12.31,0A6,6,0,0,0,9.84,3.5Z" transform="translate(-0.26 -0.23)"/><path class="cls-1" d="M7,6.39a0.54,0.54,0,0,0,.54-0.54V1.36a0.54,0.54,0,0,0-1.07,0v4.5A0.54,0.54,0,0,0,7,6.39Z" transform="translate(-0.26 -0.23)"/><path class="cls-1" d="M9.87,3.55V4.66a5.12,5.12,0,1,1-5.74,0V3.55A6,6,0,0,0,.88,8.89a6.12,6.12,0,1,0,12.24,0A6,6,0,0,0,9.87,3.55Z" transform="translate(-0.26 -0.23)"/><path class="cls-1" d="M7,6.35a0.51,0.51,0,0,0,.5-0.5V1.36a0.5,0.5,0,0,0-1,0v4.5A0.51,0.51,0,0,0,7,6.35Z" transform="translate(-0.26 -0.23)"/><path class="cls-1" d="M9.9,3.6v1a5.15,5.15,0,1,1-5.8,0v-1A6,6,0,0,0,.91,8.89a6.09,6.09,0,1,0,12.18,0A6,6,0,0,0,9.9,3.6Z" transform="translate(-0.26 -0.23)"/><path class="cls-1" d="M7,6.32a0.47,0.47,0,0,0,.47-0.47V1.36a0.47,0.47,0,0,0-.94,0v4.5A0.47,0.47,0,0,0,7,6.32Z" transform="translate(-0.26 -0.23)"/><path class="cls-1" d="M9.93,3.66v1a5.18,5.18,0,1,1-5.87,0v-1A5.94,5.94,0,0,0,.94,8.89a6.06,6.06,0,1,0,12.11,0A5.94,5.94,0,0,0,9.93,3.66Z" transform="translate(-0.26 -0.23)"/><path class="cls-1" d="M7,6.29a0.44,0.44,0,0,0,.44-0.44V1.36a0.44,0.44,0,0,0-.87,0v4.5A0.44,0.44,0,0,0,7,6.29Z" transform="translate(-0.26 -0.23)"/><path class="cls-1" d="M10,3.71v0.9A5.22,5.22,0,1,1,4,4.61V3.71A5.91,5.91,0,0,0,1,8.89a6,6,0,1,0,12,0A5.91,5.91,0,0,0,10,3.71Z" transform="translate(-0.26 -0.23)"/><path class="cls-1" d="M7,6.26a0.41,0.41,0,0,0,.4-0.4V1.36a0.4,0.4,0,0,0-.81,0v4.5A0.41,0.41,0,0,0,7,6.26Z" transform="translate(-0.26 -0.23)"/><path class="cls-1" d="M10,3.76V4.59a5.25,5.25,0,1,1-6,0V3.76A5.88,5.88,0,0,0,1,8.89a6,6,0,1,0,12,0A5.88,5.88,0,0,0,10,3.76Z" transform="translate(-0.26 -0.23)"/><path class="cls-1" d="M7,6.22a0.38,0.38,0,0,0,.37-0.37V1.36a0.37,0.37,0,0,0-.74,0v4.5A0.38,0.38,0,0,0,7,6.22Z" transform="translate(-0.26 -0.23)"/><path class="cls-1" d="M10,3.82V4.58A5.28,5.28,0,1,1,4,4.58V3.82A5.86,5.86,0,0,0,1,8.89,6,6,0,1,0,13,8.89,5.86,5.86,0,0,0,10,3.82Z" transform="translate(-0.26 -0.23)"/><path class="cls-1" d="M7,6.19a0.34,0.34,0,0,0,.34-0.34V1.36a0.34,0.34,0,0,0-.68,0v4.5A0.34,0.34,0,0,0,7,6.19Z" transform="translate(-0.26 -0.23)"/><path class="cls-1" d="M10.07,3.87V4.56a5.31,5.31,0,1,1-6.13,0V3.87a5.83,5.83,0,0,0-2.86,5,5.93,5.93,0,1,0,11.85,0A5.83,5.83,0,0,0,10.07,3.87Z" transform="translate(-0.26 -0.23)"/><path class="cls-1" d="M7,6.16a0.31,0.31,0,0,0,.31-0.31V1.36a0.31,0.31,0,0,0-.61,0v4.5A0.31,0.31,0,0,0,7,6.16Z" transform="translate(-0.26 -0.23)"/><path class="cls-1" d="M10.1,3.93V4.54a5.35,5.35,0,1,1-6.2,0V3.93a5.81,5.81,0,0,0-2.8,5,5.89,5.89,0,1,0,11.79,0A5.81,5.81,0,0,0,10.1,3.93Z" transform="translate(-0.26 -0.23)"/><path class="cls-1" d="M7,6.13a0.28,0.28,0,0,0,.27-0.27V1.36a0.27,0.27,0,0,0-.55,0v4.5A0.28,0.28,0,0,0,7,6.13Z" transform="translate(-0.26 -0.23)"/><path class="cls-1" d="M10.13,4V4.52a5.38,5.38,0,1,1-6.26,0V4A5.78,5.78,0,0,0,1.14,8.89a5.86,5.86,0,1,0,11.72,0A5.78,5.78,0,0,0,10.13,4Z" transform="translate(-0.26 -0.23)"/><path class="cls-1" d="M7,6.09a0.24,0.24,0,0,0,.24-0.24V1.36a0.24,0.24,0,0,0-.48,0v4.5A0.24,0.24,0,0,0,7,6.09Z" transform="translate(-0.26 -0.23)"/><path class="cls-1" d="M10.16,4V4.51a5.41,5.41,0,1,1-6.33,0V4A5.76,5.76,0,0,0,1.17,8.89a5.83,5.83,0,1,0,11.66,0A5.76,5.76,0,0,0,10.16,4Z" transform="translate(-0.26 -0.23)"/><path class="cls-1" d="M7,6.06a0.21,0.21,0,0,0,.21-0.21V1.36a0.21,0.21,0,0,0-.42,0v4.5A0.21,0.21,0,0,0,7,6.06Z" transform="translate(-0.26 -0.23)"/><path class="cls-1" d="M10.2,4.09v0.4a5.44,5.44,0,1,1-6.39,0V4.09a5.74,5.74,0,0,0-2.6,4.8,5.8,5.8,0,1,0,11.59,0A5.74,5.74,0,0,0,10.2,4.09Z" transform="translate(-0.26 -0.23)"/><path class="cls-1" d="M7,6a0.18,0.18,0,0,0,.18-0.18V1.36a0.18,0.18,0,0,0-.35,0v4.5A0.18,0.18,0,0,0,7,6Z" transform="translate(-0.26 -0.23)"/><path class="cls-1" d="M10.23,4.14V4.47a5.48,5.48,0,1,1-6.46,0V4.14a5.75,5.75,0,1,0,9,4.75A5.72,5.72,0,0,0,10.23,4.14Z" transform="translate(-0.26 -0.23)"/><path class="cls-1" d="M7,6a0.15,0.15,0,0,0,.14-0.14V1.36a0.14,0.14,0,0,0-.29,0v4.5A0.15,0.15,0,0,0,7,6Z" transform="translate(-0.26 -0.23)"/><path class="cls-1" d="M10.26,4.19V4.45a5.51,5.51,0,1,1-6.52,0V4.19A5.73,5.73,0,1,0,10.26,4.19Z" transform="translate(-0.26 -0.23)"/><path class="cls-1" d="M7,6a0.11,0.11,0,0,0,.11-0.11V1.36a0.11,0.11,0,0,0-.22,0v4.5A0.11,0.11,0,0,0,7,6Z" transform="translate(-0.26 -0.23)"/><path class="cls-1" d="M10.29,4.25V4.44a5.54,5.54,0,1,1-6.59,0V4.25A5.7,5.7,0,1,0,10.29,4.25Z" transform="translate(-0.26 -0.23)"/><path class="cls-1" d="M7,5.93a0.08,0.08,0,0,0,.08-0.08V1.36a0.08,0.08,0,0,0-.16,0v4.5A0.08,0.08,0,0,0,7,5.93Z" transform="translate(-0.26 -0.23)"/><path class="cls-1" d="M10.33,4.3V4.42a5.58,5.58,0,1,1-6.65,0V4.3A5.66,5.66,0,1,0,10.33,4.3Z" transform="translate(-0.26 -0.23)"/><path class="cls-1" d="M7,5.9a0,0,0,0,0,0,0V1.36a0,0,0,0,0-.09,0v4.5A0,0,0,0,0,7,5.9Z" transform="translate(-0.26 -0.23)"/></svg>