<?xml version="1.0" encoding="utf-8"?>
<!-- Generator: Adobe Illustrator 19.2.1, SVG Export Plug-In . SVG Version: 6.00 Build 0)  -->
<svg version="1.1" xmlns="http://www.w3.org/2000/svg" xmlns:xlink="http://www.w3.org/1999/xlink" x="0px" y="0px"
	 viewBox="0 0 16 16" style="enable-background:new 0 0 16 16;" xml:space="preserve">
<style type="text/css">
	.st0{display:none;}
	.st1{display:inline;fill:none;stroke:#0077B0;stroke-width:2;stroke-miterlimit:10;}
	.st2{display:inline;}
	.st3{fill:#0077B0;}
	.st4{display:inline;fill:#0077B0;}
	.st5{display:inline;fill:#FFFFFF;}
	.st6{fill:none;stroke:#0077B0;stroke-width:2;stroke-miterlimit:10;}
	.st7{fill:#FFFFFF;}
</style>
<g id="Layer_1" class="st0">
	<path class="st1" d="M14.6,9.5v4.2c0,0.5-0.4,0.8-0.8,0.8H2.6c-0.5,0-0.8-0.4-0.8-0.8V2.2c0-0.5,0.4-0.8,0.8-0.8h3.3"/>
	<path class="st1" d="M1.8,9.5v4.2c0,0.5,0.4,0.8,0.8,0.8h11.2c0.5,0,0.8-0.4,0.8-0.8V2.2c0-0.5-0.4-0.8-0.8-0.8h-3.4"/>
	<g class="st2">
		<path class="st3" d="M10.2,10C9.5,10,8.7,9.8,8,9.3c-1.7-1-4.2,0.5-4.2,0.5V8.2c0.1-0.1,2.3-2.3,5.3-0.5C10,8.3,11.9,8,12.6,7.2
			v2.3C12.1,9.9,11.4,10,10.2,10z"/>
	</g>
	<path class="st4" d="M2.7,12.6c0,0-0.1,0.9,0.8,0.9s-1.2,0.3-1.2,0.3L2.7,12.6z"/>
	<path class="st4" d="M13.6,3.3c0,0,0.1-0.9-0.8-0.9c-0.9,0,1.2-0.3,1.2-0.3L13.6,3.3z"/>
	<path class="st4" d="M2.8,3.3c0,0-0.1-0.9,0.8-0.9S2.4,2.1,2.4,2.1L2.8,3.3z"/>
	<path class="st4" d="M13.6,12.6c0,0,0.1,0.9-0.8,0.9c-0.9,0,1.2,0.3,1.2,0.3L13.6,12.6z"/>
	<path class="st4" d="M11.8,12.9H4.5c-0.4,0-0.8-0.4-0.8-0.8V9.3c0-0.4,0.4-0.8,0.8-0.8h7.2c0.4,0,0.8,0.4,0.8,0.8v2.8
		C12.6,12.5,12.2,12.9,11.8,12.9z"/>
	<rect x="5.9" y="0.4" class="st4" width="5.2" height="2"/>
	<circle class="st4" cx="10.6" cy="5.8" r="1.1"/>
	<circle class="st4" cx="8.6" cy="6.4" r="0.6"/>
	<circle class="st5" cx="5.9" cy="9" r="0.7"/>
	<circle class="st5" cx="7.2" cy="9.9" r="0.3"/>
</g>
<g id="Layer_2">
	<path class="st6" d="M14.6,9.5v4.2c0,0.5-0.4,0.8-0.8,0.8H2.6c-0.5,0-0.8-0.4-0.8-0.8V2.2c0-0.5,0.4-0.8,0.8-0.8h3.3"/>
	<path class="st6" d="M1.8,9.5v4.2c0,0.5,0.4,0.8,0.8,0.8h11.2c0.5,0,0.8-0.4,0.8-0.8V2.2c0-0.5-0.4-0.8-0.8-0.8h-3.4"/>
	<path class="st3" d="M2.7,12.6c0,0-0.1,0.9,0.8,0.9s-1.2,0.3-1.2,0.3L2.7,12.6z"/>
	<path class="st3" d="M13.6,3.3c0,0,0.1-0.9-0.8-0.9c-0.9,0,1.2-0.3,1.2-0.3L13.6,3.3z"/>
	<path class="st3" d="M2.8,3.3c0,0-0.1-0.9,0.8-0.9S2.4,2.1,2.4,2.1L2.8,3.3z"/>
	<path class="st3" d="M13.6,12.6c0,0,0.1,0.9-0.8,0.9c-0.9,0,1.2,0.3,1.2,0.3L13.6,12.6z"/>
	<path class="st3" d="M12.2,8.5V7C11.5,7.8,9.8,8,9,7.4C6.2,5.7,4.2,7.8,4.1,7.9v0.6v1v1.8c0,0.4,0.3,0.8,0.7,0.8h6.7
		c0.4,0,0.7-0.3,0.7-0.8L12.2,8.5C12.2,8.5,12.2,8.5,12.2,8.5z"/>
	<rect x="5.9" y="0.4" class="st3" width="5.2" height="2"/>
	<circle class="st3" cx="10.6" cy="5.6" r="1.1"/>
	<circle class="st3" cx="8.6" cy="6.2" r="0.6"/>
	<circle class="st7" cx="5.9" cy="8.8" r="0.7"/>
	<circle class="st7" cx="7.2" cy="9.7" r="0.3"/>
</g>
</svg>
