<svg id="Layer_1" data-name="Layer 1" xmlns="http://www.w3.org/2000/svg" viewBox="0 0 14.84 15.12"><defs><style>.cls-1{fill:none;stroke:#0077b0;stroke-miterlimit:10;stroke-width:2px;}</style></defs><title>tanque</title><path class="cls-1" d="M14.54,9.68v4.17a0.83,0.83,0,0,1-.83.83H2.53a0.83,0.83,0,0,1-.83-0.83V2.39a0.83,0.83,0,0,1,.83-0.83H5.87" transform="translate(-0.7 -0.56)"/><path class="cls-1" d="M1.7,9.68v4.17a0.83,0.83,0,0,0,.83.83H13.71a0.83,0.83,0,0,0,.83-0.83V2.39a0.83,0.83,0,0,0-.83-0.83H10.3" transform="translate(-0.7 -0.56)"/><path class="cls-1" d="M3.53,7.67S6,5.67,8.6,7.11a3.37,3.37,0,0,0,4.28-.52" transform="translate(-0.7 -0.56)"/></svg>