<?xml version="1.0" encoding="utf-8"?>
<!-- Generator: Adobe Illustrator 18.0.0, SVG Export Plug-In . SVG Version: 6.00 Build 0)  -->
<!DOCTYPE svg PUBLIC "-//W3C//DTD SVG 1.1//EN" "http://www.w3.org/Graphics/SVG/1.1/DTD/svg11.dtd">
<svg version="1.1" id="Capa_1" xmlns="http://www.w3.org/2000/svg" xmlns:xlink="http://www.w3.org/1999/xlink" x="0px" y="0px"
	 viewBox="0 0 14 15" enable-background="new 0 0 14 15" xml:space="preserve">
<g id="XMLID_71_">
	<path fill="#FFFFFF" d="M5.1,15c1.9,0,3.7-0.9,5-2.4l0,0v-0.2c-0.2-1-0.6-1.8-1.1-2.5C8.6,9.4,8.2,9,7.6,8.7L7.5,8.6L7.5,8.7
		C7.4,8.8,7.3,8.9,7.2,9C6.6,9.5,5.8,9.7,5.1,9.7c-0.9,0-1.8-0.4-2.4-1L2.6,8.6L2.5,8.7C1.1,9.5,0.3,10.8,0,12.4l0,0.1l0,0
		C1.4,14.1,3.2,15,5.1,15z"/>
	<path fill="#FFFFFF" d="M8.1,6.1c0-0.2,0-0.5-0.1-0.7C7.7,4.1,6.5,3.1,5.1,3.1c-1.7,0-3,1.3-3,3c0,1.6,1.4,3,3,3
		c0.6,0,1.2-0.2,1.7-0.5C7.6,8,8.1,7.1,8.1,6.1z"/>
	<path fill="#FFFFFF" d="M11.6,3.8c-1.1-0.3-1.3-0.5-1.3-1c0-0.5,0.8-0.6,1.2-0.6c0.4,0,0.9,0.1,1.2,0.3c0.1,0.1,0.3,0,0.4-0.1
		l0.6-0.9c0.1-0.1,0-0.3-0.1-0.4c-0.4-0.3-1-0.5-1.5-0.5V0.3C12,0.1,11.9,0,11.8,0h-1c-0.1,0-0.3,0.1-0.3,0.3v0.6
		c-1.1,0.3-1.7,1-1.7,2c0,1.7,1.5,2.1,2.4,2.4c1.1,0.3,1.3,0.5,1.3,0.8c0,0.4-0.7,0.5-1.1,0.5c-0.5,0-1.1-0.2-1.4-0.6
		C9.8,6,9.8,6,9.7,6C9.6,6,9.6,6,9.5,6.1L8.8,6.8C8.6,6.9,8.6,7,8.7,7.1c0.4,0.5,1.1,0.8,1.7,0.9v0.6c0,0.1,0.1,0.3,0.3,0.3h1
		c0.1,0,0.3-0.1,0.3-0.3V8.1c1.2-0.2,2-1,2-2C14,4.5,12.6,4.1,11.6,3.8L11.6,3.8z M11.6,3.8"/>
</g>
</svg>
