<?xml version="1.0" encoding="utf-8"?>
<!-- Generator: Adobe Illustrator 18.0.0, SVG Export Plug-In . SVG Version: 6.00 Build 0)  -->
<!DOCTYPE svg PUBLIC "-//W3C//DTD SVG 1.1//EN" "http://www.w3.org/Graphics/SVG/1.1/DTD/svg11.dtd">
<svg version="1.1" id="Capa_1" xmlns="http://www.w3.org/2000/svg" xmlns:xlink="http://www.w3.org/1999/xlink" x="0px" y="0px"
	 viewBox="0 0 18 12" enable-background="new 0 0 18 12" xml:space="preserve">
<g id="XMLID_73_">
	<ellipse fill="none" cx="15.9" cy="6.4" rx="0.7" ry="0.7"/>
	<path fill="#FFFFFF" d="M14.5,2.9c0,0-2.4,3.5,0.1,7c0,0,3.3-1.3,3.3-3.6C18,6.3,18,4.7,14.5,2.9z M15.9,7.1
		c-0.4,0-0.7-0.3-0.7-0.7c0-0.4,0.3-0.7,0.7-0.7c0.4,0,0.7,0.3,0.7,0.7C16.6,6.7,16.3,7.1,15.9,7.1z"/>
	<path fill="#FFFFFF" d="M13.9,10.2c0,0-1.6-1.8-1.5-4.2c0,0,0.2-2.3,1.5-3.3c0,0-1.3-3.7-4.7-2.3c0,0-0.4,0.4-0.3,2.2
		c0,0-2.1,3.9,0.1,7.8c0,0-0.4,1.6,0.6,1.7c1,0.1,2.3-0.5,2.9-1.5C12.4,10.5,13.7,10.3,13.9,10.2z"/>
	<path fill="#FFFFFF" d="M7.8,9.9c0,0-2.1-3.3,0-7c0,0-3.1-1.7-3.6-0.1c0,0-0.3,0.9,0.5,1.6c0,0-0.7,0.6-1,0.5c0,0-0.6,1.2,0,2.8
		c0,0,0.5,0.2,0.9,0.3c0,0-0.8,1.2-0.2,2.1C4.4,10.2,5,11.3,7.8,9.9z"/>
	<path fill="#FFFFFF" d="M2.7,7.8c0,0-0.5-1.3,0-2.8c0,0-0.8-0.7-1.8-0.7c-1,0-1,1.3-1,2.4c0,1.1,0.4,1.9,1.2,1.9
		C2,8.4,2.4,8,2.7,7.8z"/>
</g>
</svg>
