<?xml version="1.0" encoding="utf-8"?>
<!-- Generator: Adobe Illustrator 18.0.0, SVG Export Plug-In . SVG Version: 6.00 Build 0)  -->
<!DOCTYPE svg PUBLIC "-//W3C//DTD SVG 1.1//EN" "http://www.w3.org/Graphics/SVG/1.1/DTD/svg11.dtd">
<svg version="1.1" id="Capa_1" xmlns="http://www.w3.org/2000/svg" xmlns:xlink="http://www.w3.org/1999/xlink" x="0px" y="0px"
	 viewBox="0 0 17 13" enable-background="new 0 0 17 13" xml:space="preserve">
<g id="XMLID_72_">
	<g>
		<ellipse fill="#FFFFFF" cx="6.4" cy="6.4" rx="6.4" ry="1"/>
		<path fill="#FFFFFF" d="M6.6,8.2c-5.4,0-6.6-1-6.6-1v1.9L0,12c0,0.6,2.9,1,6.4,1s6.4-0.5,6.4-1V7.2C12.8,7.2,11.4,8.1,6.6,8.2z"/>
	</g>
	<ellipse fill="#FFFFFF" cx="12.1" cy="0.8" rx="4.9" ry="0.8"/>
	<g>
		<path fill="#FFFFFF" d="M12.3,2.4c-4.1,0-5-0.8-5-0.8V3l0,1.6c3.2,0,6,0.5,6,1.5c0,0,0,0.3,0,0.6c2.4,0,3.7-0.4,3.7-0.8V1.6
			C17,1.6,15.9,2.3,12.3,2.4z"/>
	</g>
</g>
</svg>
