<svg id="Layer_1" data-name="Layer 1" xmlns="http://www.w3.org/2000/svg" viewBox="0 0 19.05 15.52"><defs><style>.cls-1{fill:#fff;}</style></defs><title>iconoMenuGranja</title><path class="cls-1" d="M9.8,15.58h5.51A3.74,3.74,0,0,0,19,12.24,11.42,11.42,0,0,0,9.8,15.58Z" transform="translate(0 -0.06)"/><path class="cls-1" d="M6.11,11A15.87,15.87,0,0,1,9.52,9.26a8.31,8.31,0,0,0-9.2-.69A1.61,1.61,0,0,1,0,8.68V8.91C2.33,8.55,4.83,8.89,6.11,11Z" transform="translate(0 -0.06)"/><path class="cls-1" d="M8.68,6.37A16.64,16.64,0,0,1,19.05,4.49V3.81A3.76,3.76,0,0,0,15.31.06H3.74A3.76,3.76,0,0,0,0,3.81V7.24A13.49,13.49,0,0,1,8.68,6.37Z" transform="translate(0 -0.06)"/><path class="cls-1" d="M4.38,15.58h4a13.86,13.86,0,0,1,8.69-4.48,11.19,11.19,0,0,1,1.94,0V9.85a10.35,10.35,0,0,0-1.48-.47C12.51,8.23,6.83,11.21,4.38,15.58Z" transform="translate(0 -0.06)"/><path class="cls-1" d="M0,12.25a3.74,3.74,0,0,0,2,2.92c0.21-.32.41-0.65,0.64-1A8.38,8.38,0,0,0,0,12.25Z" transform="translate(0 -0.06)"/><path class="cls-1" d="M4.93,11.89c-0.92-2-3-2.31-4.93-2v1.26a9.12,9.12,0,0,1,3.58,2A14.14,14.14,0,0,1,4.93,11.89Z" transform="translate(0 -0.06)"/><path class="cls-1" d="M10.64,7.15a11.21,11.21,0,0,1,1.94,1.29,18.37,18.37,0,0,1,6.47.06V6.59A10.71,10.71,0,0,0,10.64,7.15Z" transform="translate(0 -0.06)"/></svg>