<?xml version="1.0" encoding="utf-8"?>
<!-- Generator: Adobe Illustrator 19.2.1, SVG Export Plug-In . SVG Version: 6.00 Build 0)  -->
<svg version="1.1" id="Layer_1" xmlns="http://www.w3.org/2000/svg" xmlns:xlink="http://www.w3.org/1999/xlink" x="0px" y="0px"
	 viewBox="0 0 18.4 13" style="enable-background:new 0 0 18.4 13;" xml:space="preserve">
<style type="text/css">
	.st0{fill:#FFFFFF;}
</style>
<g>
	<path class="st0" d="M18.1,9.7h-0.6V6.1c0-0.4-0.1-0.8-0.4-1.2l-1.6-2.4c-0.4-0.6-1-0.9-1.7-0.9h-2.5c-0.3,0-0.5,0.2-0.5,0.5v7.5
		H6.7C7.1,10,7.4,10.5,7.5,11h4.3c0.2-1,1.1-1.8,2.1-1.8c1.1,0,2,0.8,2.1,1.8h2.1c0.1,0,0.3-0.1,0.3-0.3V10
		C18.4,9.8,18.3,9.7,18.1,9.7z M15.5,5.4h-3.3c-0.1,0-0.3-0.1-0.3-0.3V3.4c0-0.1,0.1-0.3,0.3-0.3h2c0.1,0,0.2,0,0.2,0.1L15.7,5
		C15.9,5.2,15.7,5.4,15.5,5.4z"/>
	<circle class="st0" cx="13.9" cy="11.3" r="1.6"/>
	<path class="st0" d="M0.3,9.7C0.1,9.7,0,9.8,0,10v0.8C0,10.9,0.1,11,0.3,11h2.9c0.1-0.5,0.3-1,0.7-1.3H0.3L0.3,9.7z"/>
	<circle class="st0" cx="5.3" cy="11.3" r="1.6"/>
	<path class="st0" d="M9.3,0H6.5H6.2H4.5H4.3H1.4C1,0,0.6,0.4,0.6,0.8v4.9l0,0v2.9c0,0.1,0,0.1,0,0.1c0,0.1,0.1,0.1,0.2,0.1
		c0,0,0,0,0,0l0,0h8.9c0.1,0,0.2-0.1,0.3-0.2c0,0,0,0,0,0V5.7V0.8C10,0.4,9.7,0,9.3,0z"/>
</g>
</svg>
