<?xml version="1.0" encoding="utf-8"?>
<!-- Generator: Adobe Illustrator 18.0.0, SVG Export Plug-In . SVG Version: 6.00 Build 0)  -->
<!DOCTYPE svg PUBLIC "-//W3C//DTD SVG 1.1//EN" "http://www.w3.org/Graphics/SVG/1.1/DTD/svg11.dtd">
<svg version="1.1" id="Capa_1" xmlns="http://www.w3.org/2000/svg" xmlns:xlink="http://www.w3.org/1999/xlink" x="0px" y="0px"
	 viewBox="0 0 19 17" enable-background="new 0 0 19 17" xml:space="preserve">
<g>
	<path fill="#E5E5E6" d="M13.7,13.4L13.7,13.4C11.8,15.8,9.4,17,6.8,17c-2.6,0-5-1.2-6.8-3.5L0,13.4l0-0.1C0.4,11,1.6,9,3.4,8
		l0.1-0.1L3.6,8c0.9,0.9,2,1.5,3.2,1.5c1.2,0,2.4-0.5,3.2-1.5l0.1-0.1L10.3,8C12.1,9,13.3,11,13.7,13.4L13.7,13.4z M6.8,8.5
		c2.2,0,4.1-1.9,4.1-4.2C10.9,1.9,9.1,0,6.8,0C4.6,0,2.8,1.9,2.8,4.2C2.8,6.6,4.6,8.5,6.8,8.5L6.8,8.5z M6.8,8.5"/>
	<polygon id="XMLID_107_" fill="#E5E5E6" points="13.6,7.6 19,7.6 16.3,11.2 	"/>
</g>
</svg>
