<?xml version="1.0" encoding="utf-8"?>
<!-- Generator: Adobe Illustrator 18.0.0, SVG Export Plug-In . SVG Version: 6.00 Build 0)  -->
<!DOCTYPE svg PUBLIC "-//W3C//DTD SVG 1.1//EN" "http://www.w3.org/Graphics/SVG/1.1/DTD/svg11.dtd">
<svg version="1.1" id="Capa_1" xmlns="http://www.w3.org/2000/svg" xmlns:xlink="http://www.w3.org/1999/xlink" x="0px" y="0px"
	 viewBox="0 0 19 18" enable-background="new 0 0 19 18" xml:space="preserve">
<g>
	<path fill="#FFFFFF" d="M18.7,8.9l-7.8-8.3c-0.8-0.8-2.1-0.8-2.9,0L0.3,8.9c-0.7,0.6-0.2,1.7,0.7,1.7l2,0v5.6c0,1,0.8,1.7,1.8,1.7
		h9.3c1,0,1.8-0.8,1.8-1.7v-5.6l2.1,0C18.9,10.6,19.3,9.5,18.7,8.9z"/>
	<path fill="#4376AC" d="M12.5,8.5c0.4,0.2,0.9,0.4,1.3,0.6c0.1,0.1,0.2,0.2,0.3,0.3c0,0.2-0.1,0.3-0.3,0.3
		c-0.3,0.1-0.5,0.2-0.8,0.3c-0.1,0-0.3,0-0.4,0c-0.6-0.2-1.2-0.5-1.7-0.7C10.1,8.9,9.2,8.8,8.4,9C7.7,9.2,7,9.5,6.3,9.7
		C6.2,9.8,6,9.8,5.9,9.7C5.6,9.6,5.3,9.5,5.1,9.4C5,9.3,4.9,9.2,4.9,9.1C4.9,9,5,8.9,5.1,8.9C6,8.5,6.9,8,8,7.8
		c1.1-0.3,2.2-0.2,3.3,0.2C11.7,8.2,12.1,8.3,12.5,8.5C12.5,8.5,12.5,8.5,12.5,8.5z"/>
	<path fill="#4376AC" d="M11.6,10.6c0.3,0.1,0.6,0.3,0.9,0.4c0.1,0,0.2,0.1,0.2,0.2c0,0.1-0.1,0.2-0.2,0.2c-0.2,0.1-0.4,0.2-0.6,0.2
		c-0.1,0-0.2,0-0.3,0c-0.4-0.2-0.8-0.3-1.2-0.5c-0.6-0.2-1.2-0.3-1.7-0.1c-0.5,0.1-1,0.3-1.5,0.5c-0.1,0-0.2,0.1-0.3,0
		c-0.2-0.1-0.4-0.2-0.6-0.3c-0.1,0-0.1-0.1-0.1-0.2c0-0.1,0.1-0.1,0.1-0.2c0.7-0.3,1.3-0.6,2.1-0.8c0.8-0.2,1.6-0.2,2.4,0.2
		C11,10.4,11.3,10.5,11.6,10.6C11.6,10.6,11.6,10.6,11.6,10.6z"/>
	<path fill="#4376AC" d="M11,12.3c0.2,0.1,0.5,0.2,0.7,0.3c0.1,0,0.1,0.1,0.1,0.1c0,0.1-0.1,0.1-0.1,0.2c-0.1,0.1-0.3,0.1-0.4,0.2
		c-0.1,0-0.1,0-0.2,0c-0.3-0.1-0.6-0.2-0.9-0.4c-0.4-0.2-0.8-0.2-1.3-0.1c-0.4,0.1-0.7,0.2-1.1,0.4c-0.1,0-0.2,0-0.3,0
		c-0.1-0.1-0.3-0.1-0.4-0.2c0,0-0.1-0.1-0.1-0.1c0,0,0.1-0.1,0.1-0.1c0.5-0.2,1-0.5,1.5-0.6c0.6-0.1,1.2-0.1,1.7,0.1
		C10.6,12.1,10.8,12.2,11,12.3C11,12.3,11,12.3,11,12.3z"/>
</g>
</svg>
