<?xml version="1.0" encoding="utf-8"?>
<!-- Generator: Adobe Illustrator 18.0.0, SVG Export Plug-In . SVG Version: 6.00 Build 0)  -->
<!DOCTYPE svg PUBLIC "-//W3C//DTD SVG 1.1//EN" "http://www.w3.org/Graphics/SVG/1.1/DTD/svg11.dtd">
<svg version="1.1" id="Capa_1" xmlns="http://www.w3.org/2000/svg" xmlns:xlink="http://www.w3.org/1999/xlink" x="0px" y="0px"
	 viewBox="0 0 10 13" enable-background="new 0 0 10 13" xml:space="preserve">
<g id="XMLID_69_">
	<defs>
		<rect id="SVGID_1_" x="0" width="10" height="13"/>
	</defs>
	<clipPath id="SVGID_2_">
		<use xlink:href="#SVGID_1_"  overflow="visible"/>
	</clipPath>
	<path clip-path="url(#SVGID_2_)" fill="#FFFFFF" d="M10,10.1L10,10.1c-1.4,1.8-3.1,2.7-5,2.7s-3.6-0.9-5-2.6l0-0.1L0,10
		c0.3-1.8,1.1-3.2,2.5-4l0.1-0.1L2.6,6C3.2,6.7,4.1,7.1,5,7.1c0.9,0,1.7-0.4,2.4-1.1l0.1-0.1L7.5,6C8.9,6.8,9.7,8.2,10,10.1L10,10.1
		z M5,6.4c1.6,0,3-1.4,3-3.2C8,1.4,6.6,0,5,0C3.3,0,2,1.4,2,3.2C2,5,3.3,6.4,5,6.4L5,6.4z M5,6.4"/>
</g>
</svg>
