<?xml version="1.0" encoding="utf-8"?>
<!-- Generator: Adobe Illustrator 18.0.0, SVG Export Plug-In . SVG Version: 6.00 Build 0)  -->
<!DOCTYPE svg PUBLIC "-//W3C//DTD SVG 1.1//EN" "http://www.w3.org/Graphics/SVG/1.1/DTD/svg11.dtd">
<svg version="1.1" id="Capa_1" xmlns="http://www.w3.org/2000/svg" xmlns:xlink="http://www.w3.org/1999/xlink" x="0px" y="0px"
	 viewBox="0 0 11 17" enable-background="new 0 0 11 17" xml:space="preserve">
<path id="XMLID_76_" fill="#FFFFFF" d="M8.5,12.2c-1.1,0-1.9,0.7-2.3,1.7H3.1V9.4h3.2c0.3,1,1.2,1.7,2.3,1.7c1.3,0,2.4-1.1,2.4-2.4
	c0-1.3-1.1-2.4-2.4-2.4C7.6,6.3,6.7,7,6.4,7.9H3.1V4.7c1-0.3,1.6-1.2,1.6-2.3C4.8,1.1,3.7,0,2.4,0C1.1,0,0,1.1,0,2.4
	c0,1.1,0.7,2,1.6,2.3v3.3h0v1.5h0v4.4h0v1.5h0h1.5h3.1c0.3,1,1.2,1.7,2.3,1.7c1.3,0,2.4-1.1,2.4-2.4C10.9,13.3,9.8,12.2,8.5,12.2z"
	/>
</svg>
