<svg id="Layer_1" data-name="Layer 1" xmlns="http://www.w3.org/2000/svg" viewBox="0 0 17.21 17.92"><defs><style>.cls-1{fill:#fff;}</style></defs><title>iconoMenuSiembra</title><path class="cls-1" d="M5.13,12.32a3,3,0,0,0,2.31,1.1h4.92a1,1,0,0,0,.95-0.95,0.94,0.94,0,0,0-.07-0.36h0.07a1.42,1.42,0,0,0,1.43-1.42,1.41,1.41,0,0,0-.12-0.56h0.31a1.42,1.42,0,0,0,.73-2.64h0.43a1.42,1.42,0,0,0,0-2.85H9A0.43,0.43,0,0,1,8.61,4a7.91,7.91,0,0,0,.78-2.3,1.42,1.42,0,1,0-2.81-.48A6.22,6.22,0,0,1,5,4.3a1.31,1.31,0,0,0-.15.2,1.31,1.31,0,0,1-1.11.63H0.3v6.71H4.13A1.31,1.31,0,0,1,5.13,12.32Z" transform="translate(-0.3 -0.04)"/><circle class="cls-1" cx="7.59" cy="15.48" r="0.71"/><circle class="cls-1" cx="11.23" cy="15.48" r="0.71"/><circle class="cls-1" cx="9.4" cy="17.21" r="0.71"/></svg>