<?xml version="1.0" encoding="utf-8"?>
<!-- Generator: Adobe Illustrator 18.0.0, SVG Export Plug-In . SVG Version: 6.00 Build 0)  -->
<!DOCTYPE svg PUBLIC "-//W3C//DTD SVG 1.1//EN" "http://www.w3.org/Graphics/SVG/1.1/DTD/svg11.dtd">
<svg version="1.1" id="Capa_1" xmlns="http://www.w3.org/2000/svg" xmlns:xlink="http://www.w3.org/1999/xlink" x="0px" y="0px"
	 viewBox="0 0 15 9" enable-background="new 0 0 15 9" xml:space="preserve">
<g id="XMLID_74_">
	<path fill="#FFFFFF" d="M15,1.3C15,0.6,14.4,0,13.6,0H1.4C0.6,0,0,0.6,0,1.3v0.8h15V1.3z"/>
	<path fill="#FFFFFF" d="M0,4v3.1C0,8.1,0.6,9,1.4,9h12.2C14.4,9,15,8.1,15,7.1V4H0z M2.2,8.1C1.5,8.1,1,7.6,1,7
		c0-0.6,0.5-1.1,1.2-1.1c0.6,0,1.2,0.5,1.2,1.1C3.3,7.6,2.8,8.1,2.2,8.1z"/>
</g>
</svg>
