<?xml version="1.0" encoding="utf-8"?>
<!-- Generator: Adobe Illustrator 18.0.0, SVG Export Plug-In . SVG Version: 6.00 Build 0)  -->
<!DOCTYPE svg PUBLIC "-//W3C//DTD SVG 1.1//EN" "http://www.w3.org/Graphics/SVG/1.1/DTD/svg11.dtd">
<svg version="1.1" id="Capa_1" xmlns="http://www.w3.org/2000/svg" xmlns:xlink="http://www.w3.org/1999/xlink" x="0px" y="0px"
	 viewBox="0 0 14 15" enable-background="new 0 0 14 15" xml:space="preserve">
<g id="XMLID_70_">
	<path fill="#FFFFFF" d="M7.6,7.8c0.5-0.6,0.7-1.6,0.7-2.5c0-0.2,0-0.5-0.1-0.7c0.1,0,0.1-0.1,0.2-0.2l0.1,0l0.1,0.1
		C9,5,9.6,5.3,10.3,5.3c0.7,0,1.3-0.3,1.8-0.8l0.1-0.1l0.1,0c1,0.6,1.6,1.6,1.8,2.9v0.1l0,0c-1,1.3-2.3,2-3.7,2
		c-0.4,0-0.8-0.1-1.1-0.2C8.8,8.8,8.3,8.4,7.8,8.1L7.6,7.8z"/>
	<ellipse fill="#FFFFFF" cx="10.3" cy="2.4" rx="2.2" ry="2.4"/>
	<path fill="#FFFFFF" d="M5,15c1.9,0,3.6-0.9,5-2.6l0,0v-0.2c-0.2-1.1-0.6-2-1.1-2.7C8.5,9,8.1,8.6,7.5,8.3L7.4,8.2L7.4,8.3
		C7.3,8.4,7.2,8.5,7.1,8.5C6.5,9.1,5.8,9.4,5,9.4C4.1,9.4,3.3,9,2.6,8.3L2.6,8.2L2.5,8.3c-1.3,0.8-2.2,2.2-2.5,4l0,0.1l0,0.1
		C1.4,14.1,3.1,15,5,15z"/>
	<path fill="#FFFFFF" d="M8,5.5c0-0.2,0-0.5-0.1-0.7C7.6,3.4,6.4,2.3,5,2.3c-1.6,0-3,1.4-3,3.2c0,1.7,1.3,3.2,3,3.2
		c0.6,0,1.2-0.2,1.7-0.5C7.5,7.5,8,6.6,8,5.5z"/>
</g>
</svg>
