<svg id="Capa_1" data-name="Capa 1" xmlns="http://www.w3.org/2000/svg" viewBox="0 0 11.11 11.82"><defs><style>.cls-1{fill:#fff;}</style></defs><title>usuariosMasChico</title><g id="_Group_" data-name="&lt;Group&gt;"><path class="cls-1" d="M7.43,7.74a3.23,3.23,0,0,0,.55-2,1.34,1.34,0,0,0-.08-0.55,0.3,0.3,0,0,0,.16-0.16H8.14L8.22,5.14a1.68,1.68,0,0,0,1.34.63A2,2,0,0,0,11,5.14l0.08-.08h0.08a3.07,3.07,0,0,1,1.42,2.29V7.42h0A3.67,3.67,0,0,1,9.64,9a2.83,2.83,0,0,1-.87-0.16A11.28,11.28,0,0,0,7.59,8Z" transform="translate(-1.44 -1.59)"/><ellipse class="cls-1" cx="8.12" cy="1.89" rx="1.73" ry="1.89"/><path class="cls-1" d="M5.38,13.41a5,5,0,0,0,3.94-2h0V11.2a5.25,5.25,0,0,0-.87-2.13,3.21,3.21,0,0,0-1.1-.95L7.28,8.05V8.13A0.42,0.42,0,0,1,7,8.29,2.27,2.27,0,0,1,5.38,9a2.65,2.65,0,0,1-1.89-.87V8.05l-0.08.08a4.43,4.43,0,0,0-2,3.15v0.16A5.2,5.2,0,0,0,5.38,13.41Z" transform="translate(-1.44 -1.59)"/><path class="cls-1" d="M7.75,5.92a1.34,1.34,0,0,0-.08-0.55,2.43,2.43,0,0,0-2.29-2A2.46,2.46,0,0,0,3,5.92,2.46,2.46,0,0,0,5.38,8.45a2.66,2.66,0,0,0,1.34-.39A2.77,2.77,0,0,0,7.75,5.92Z" transform="translate(-1.44 -1.59)"/></g></svg>